<?xml version="1.0" encoding="UTF-8" standalone="no"?>
<!-- Created with Inkscape (http://www.inkscape.org/) -->

<svg
   xmlns:dc="http://purl.org/dc/elements/1.1/"
   xmlns:cc="http://creativecommons.org/ns#"
   xmlns:rdf="http://www.w3.org/1999/02/22-rdf-syntax-ns#"
   xmlns:svg="http://www.w3.org/2000/svg"
   xmlns="http://www.w3.org/2000/svg"
   xmlns:sodipodi="http://sodipodi.sourceforge.net/DTD/sodipodi-0.dtd"
   xmlns:inkscape="http://www.inkscape.org/namespaces/inkscape"
   width="72.777855mm"
   height="61.343826mm"
   viewBox="0 0 257.87429 217.36001"
   id="svg4155"
   version="1.1"
   inkscape:version="0.91 r13725"
   sodipodi:docname="access-granted.svg">
  <defs
     id="defs4157" />
  <sodipodi:namedview
     id="base"
     pagecolor="#ffffff"
     bordercolor="#666666"
     borderopacity="1.0"
     inkscape:pageopacity="0.0"
     inkscape:pageshadow="2"
     inkscape:zoom="1.4"
     inkscape:cx="59.973741"
     inkscape:cy="248.86196"
     inkscape:document-units="px"
     inkscape:current-layer="layer1"
     showgrid="false"
     fit-margin-top="0"
     fit-margin-left="0"
     fit-margin-right="0"
     fit-margin-bottom="0"
     inkscape:window-width="1920"
     inkscape:window-height="1018"
     inkscape:window-x="-8"
     inkscape:window-y="-8"
     inkscape:window-maximized="1" />
  <metadata
     id="metadata4160">
    <rdf:RDF>
      <cc:Work
         rdf:about="">
        <dc:format>image/svg+xml</dc:format>
        <dc:type
           rdf:resource="http://purl.org/dc/dcmitype/StillImage" />
        <dc:title></dc:title>
      </cc:Work>
    </rdf:RDF>
  </metadata>
  <g
     inkscape:label="Calque 1"
     inkscape:groupmode="layer"
     id="layer1"
     transform="translate(-125.35408,-600.89503)">
    <path
       style="fill:#f2f2f2"
       d="m 232.38776,816.31361 c -12.13791,-2.11776 -13.28211,-2.58902 -11.33827,-4.66991 1.24367,-1.33136 2.73074,-1.35287 7.87575,-0.114 3.48844,0.84 9.60902,1.89756 13.60132,2.35014 4.70733,0.53363 7.08797,1.33733 6.77292,2.28651 -0.66257,1.99625 -6.04555,2.04311 -16.91172,0.14724 z m 21.00508,0.15638 c 0,-1.2434 2.181,-2.03731 7.1875,-2.61637 3.95312,-0.45723 10.38404,-1.53866 14.29092,-2.40318 3.90688,-0.86454 7.79337,-1.14546 8.63664,-0.62429 0.84328,0.52118 2.42799,0.71013 3.52159,0.41989 1.09359,-0.29022 0.17945,0.31809 -2.03143,1.35181 -4.04033,1.8891 -23.11921,5.65719 -28.64396,5.65719 -1.73258,0 -2.96126,-0.74065 -2.96126,-1.78505 z m 0,-4.6464 c 0,-0.5254 1.82812,-1.2185 4.0625,-1.54022 10.40956,-1.49887 21.03185,-3.39299 22.77136,-4.0605 1.05388,-0.40442 1.91614,-0.1343 1.91614,0.60026 0,0.73455 -2.13693,1.91096 -4.74873,2.61425 -6.72561,1.81102 -24.00127,3.52856 -24.00127,2.38621 z m -25.625,-2.22734 c -10.10492,-2.56925 -19.23983,-6.12073 -25.99499,-10.10637 -8.23457,-4.85853 -3.84741,-4.31308 7.53903,0.9373 11.22199,5.17456 25.54742,9.07786 33.31645,9.07786 2.40184,0 4.71461,0.5625 5.13951,1.25 1.22699,1.98531 -10.24939,1.32037 -20,-1.15879 z m -20.625,-1.05378 c -2.40625,-0.98666 -4.78826,-2.43932 -5.29336,-3.22817 -0.5051,-0.78885 -0.92697,-1.01758 -0.9375,-0.50831 -0.056,2.70775 -28.76914,-18.91277 -28.76914,-21.66268 0,-2.50661 5.37162,0.40661 13.80279,7.48572 4.8125,4.04075 13.05146,9.22446 19.14722,12.04686 5.88493,2.72479 10.72239,5.31043 10.74993,5.74586 0.11046,1.74694 -4.57528,1.81195 -8.69994,0.12075 z m 80.89116,1.32766 c -1.45969,-0.37002 2.22245,-2.77861 10.625,-6.95015 7.07236,-3.51117 13.14009,-6.7606 13.48384,-7.221 0.34375,-0.4604 4.28125,-3.8475 8.75,-7.5269 4.46875,-3.6794 8.31366,-7.1382 8.54426,-7.68622 0.2306,-0.54802 0.93373,-0.67844 1.5625,-0.28983 0.62878,0.3886 1.15354,-0.0298 1.16611,-0.92972 0.0126,-0.89994 3.07889,-6.31172 6.814,-12.02617 3.7351,-5.71444 8.56187,-14.99569 10.72613,-20.625 2.16426,-5.6293 4.43684,-10.84935 5.05016,-11.60011 0.61334,-0.75075 0.83175,-1.64842 0.48536,-1.9948 -0.96983,-0.96983 1.99697,-26.48792 3.23057,-27.78672 2.99471,-3.15301 2.76322,7.81083 -0.6011,28.47 -1.19388,7.33115 -7.37375,22.34322 -13.31394,32.34203 -5.7201,9.62836 -22.01446,26.92809 -31.16405,33.08687 -11.23821,7.5647 -21.21341,11.7885 -25.35884,10.73772 z m 0.35884,-5.18531 c 0,-0.58862 4.73956,-3.39705 10.53237,-6.24094 29.97803,-14.7173 53.48962,-51.83075 53.37372,-84.25134 -0.0141,-3.95312 0.50747,-7.1875 1.15911,-7.1875 1.82775,0 1.40284,13.80003 -0.73832,23.97875 -6.2504,29.71341 -27.11567,56.6929 -54.51655,70.49178 -9.17503,4.62046 -9.81033,4.82828 -9.81033,3.20925 z m -56.71944,-6.26741 c -3.06538,-3.19957 -4.06065,-3.51735 -9.20144,-2.93791 l -5.76427,0.64971 2.71757,-4.39712 c 3.21518,-5.20228 3.31904,-6.66919 0.81252,-11.47553 -1.03931,-1.99291 -1.65109,-3.86203 -1.35951,-4.15362 0.29158,-0.29158 2.66384,0.059 5.27169,0.77906 4.81865,1.3305 7.93302,0.0225 10.86749,-4.56446 1.88715,-2.94981 3.23211,-1.55606 3.61601,3.74719 0.3325,4.59305 1.02525,5.72324 5.13284,8.37387 l 4.74847,3.06419 -4.12297,2.13207 c -2.26764,1.17263 -4.50896,1.8935 -4.98075,1.60193 -0.47177,-0.29157 -1.23899,2.012 -1.70492,5.11906 -0.46593,3.10705 -1.24054,5.64919 -1.72135,5.64919 -0.48082,0 -2.42094,-1.61444 -4.31138,-3.58763 z m 40.19437,-2.77802 c -2.69745,-3.65884 -3.17623,-3.82259 -8.94894,-3.06052 l -6.09902,0.80513 2.66152,-4.51093 c 3.17322,-5.37823 3.27516,-7.0555 0.72815,-11.9809 l -1.93338,-3.73872 5.99588,0.78928 c 5.36544,0.7063 6.31448,0.44878 9.02625,-2.4492 3.94815,-4.21925 5.09461,-4.08565 5.09461,0.59369 0,5.27659 1.73686,8.04842 6.20222,9.89803 2.08878,0.8652 3.79205,1.92673 3.78507,2.35894 -0.007,0.43221 -2.24269,1.72235 -4.96821,2.86695 -4.34017,1.82269 -5.05691,2.71516 -5.77206,7.1875 -0.44909,2.80853 -1.29031,5.1064 -1.86936,5.1064 -0.57905,0 -2.33528,-1.73955 -3.90273,-3.86565 z m -4.16938,-9.1899 c -1.1793,-1.79986 -2.40453,-3.01214 -2.72271,-2.69395 -0.64295,0.64295 3.79965,6.98642 4.45453,6.36052 0.22682,-0.21676 -0.55251,-1.86672 -1.73182,-3.66657 z m -75.55555,6.80555 c 0,-0.6875 0.5625,-1.25 1.25,-1.25 0.6875,0 1.25,0.5625 1.25,1.25 0,0.6875 -0.5625,1.25 -1.25,1.25 -0.6875,0 -1.25,-0.5625 -1.25,-1.25 z m -11.3079,-9.53121 c -4.90159,-4.72658 -11.01455,-11.68754 -13.58436,-15.46879 -6.34437,-9.3352 -6.69328,-10 -5.24833,-10 0.69133,0 3.38625,3.23438 5.98872,7.1875 2.60246,3.95313 8.87637,11.30304 13.942,16.33315 5.06563,5.0301 8.89608,9.45981 8.5121,9.84379 -0.38398,0.38399 -4.70854,-3.16906 -9.61013,-7.89565 z m 21.83613,-1.91114 c -3.27217,-3.74551 -10.48102,-7.76507 -8.66952,-4.83401 0.33668,0.54477 -0.78754,1.25806 -2.49828,1.58509 -3.75403,0.71762 -3.94366,-0.89478 -0.68634,-5.83597 2.37724,-3.60617 2.37714,-3.71197 -0.008,-8.3877 -1.32871,-2.60451 -2.41584,-5.04983 -2.41584,-5.43407 0,-1.37831 6.8408,1.05204 9.23217,3.27993 1.72752,1.60943 2.89156,1.90006 3.98281,0.9944 1.07751,-0.89426 1.76232,-0.79336 2.27375,0.33501 0.40252,0.88807 0.43591,-0.107 0.0742,-2.21124 -0.47552,-2.76639 7.4e-4,-4.42174 1.71977,-5.97744 2.29564,-2.07752 2.40204,-1.96787 3.09361,3.18814 0.6814,5.0802 2.02636,6.87946 7.91298,10.58583 2.11881,1.33406 1.85983,1.66402 -2.78893,3.55332 -4.6128,1.87467 -5.23704,2.65596 -6.25,7.82232 l -1.12536,5.73964 -3.84678,-4.40325 z m -36.39826,-5.25131 c -2.19726,-2.88761 -4.40429,-6.31674 -4.90451,-7.62029 -0.50021,-1.30354 -1.93683,-3.39741 -3.19247,-4.65306 -2.75539,-2.75539 -2.94463,-4.78299 -0.4464,-4.78299 1.5807,0 5.55051,5.13674 13.1451,17.00912 1.21475,1.89899 1.43084,3.31652 0.625,4.09997 -0.79567,0.77355 -2.64595,-0.66115 -5.22672,-4.05275 z m 141.84496,1.57251 c -2.61249,-3.54865 -3.29252,-3.81099 -8.16243,-3.14892 -5.9495,0.80885 -6.44813,-0.0468 -3.21597,-5.51833 1.94707,-3.29614 1.95117,-3.91914 0.0576,-8.73974 l -2.03893,-5.19061 5.97685,0.82203 c 5.34177,0.73467 6.29861,0.48295 9.00491,-2.36903 4.03182,-4.24885 4.90306,-4.05479 4.90306,1.09205 0,4.46501 3.22502,8.69187 7.72036,10.11864 3.43769,1.09109 2.76414,2.21591 -2.70129,4.51116 -4.34016,1.82269 -5.0569,2.71516 -5.77205,7.1875 -0.4491,2.80853 -1.29031,5.1064 -1.86936,5.1064 -0.57905,0 -2.33529,-1.74202 -3.90274,-3.87115 z M 243.0267,765.59154 c -8.2685,-1.15329 -20.70805,-6.7228 -27.13386,-12.14854 -5.83092,-4.92342 -4.18618,-6.25479 1.82526,-1.47748 24.62336,19.56818 61.87898,13.89633 79.1014,-12.0425 2.46891,-3.71845 5.47666,-9.67847 6.68388,-13.24448 2.61584,-7.72697 5.40206,-9.80422 3.43874,-2.56374 -2.19729,8.10333 -8.87363,19.34554 -15.3123,25.78422 -7.04867,7.04867 -20.72364,14.14529 -29.34537,15.22877 -3.17163,0.39859 -7.17286,0.89323 -8.89161,1.09921 -1.71875,0.20599 -6.38351,-0.08 -10.36614,-0.63546 z m -117.22887,-13.899 c -0.80648,-25.90591 -0.7549,-26.53051 2.22607,-26.95454 2.30481,-0.32786 3.47715,1.06703 7.1602,8.51939 4.44806,9.00029 4.85655,11.03854 2.58374,12.89204 -0.6875,0.56066 -0.0109,0.67177 1.50365,0.24694 2.27857,-0.63918 3.18894,0.0807 5.27669,4.17312 2.17561,4.26455 2.26326,5.04525 0.63653,5.66949 -1.03758,0.39815 -2.19301,-0.0749 -2.56764,-1.05109 -0.37462,-0.97625 -1.42751,-1.48857 -2.33975,-1.13852 -0.93974,0.36061 -2.01497,-0.48627 -2.48079,-1.95393 -0.4581,-1.44335 -1.89188,-2.5904 -3.23793,-2.5904 -1.97399,0 -2.41576,0.88989 -2.41576,4.86626 0,4.55267 -1.43666,6.38374 -5.00868,6.38374 -0.57981,0 -1.18117,-4.07812 -1.33633,-9.0625 z m 25.2841,1.0387 c -3.80462,-2.03618 -5.85474,-5.33462 -8.17785,-13.15737 -2.88732,-9.72266 -2.60554,-14.58817 1.05694,-18.25064 1.6875,-1.6875 4.24432,-3.06819 5.68182,-3.06819 2.65038,0 8.75,5.12474 8.75,7.35152 0,1.80148 -4.05733,2.34146 -6.5313,0.86926 -3.89024,-2.315 -5.16945,0.64339 -3.5478,8.20488 2.19519,10.23584 6.45543,15.50627 7.94129,9.82434 0.90872,-3.47496 7.13781,-3.52918 7.13781,-0.0621 0,1.34083 -0.70313,2.88771 -1.5625,3.4375 -0.85938,0.54979 -1.5625,1.80289 -1.5625,2.78467 0,2.49275 -5.90645,3.82125 -9.18591,2.06614 z m 174.19072,-4.47117 c -3.13241,-3.26953 -4.07776,-3.57728 -8.94127,-2.91066 -6.02833,0.82628 -6.54579,0.0173 -2.93854,-4.59437 2.98184,-3.81206 3.05934,-5.29251 0.53282,-10.17824 -1.08193,-2.09225 -1.71867,-4.05257 -1.41496,-4.35628 0.30372,-0.30372 2.83698,-0.0389 5.62948,0.58858 4.67667,1.05078 5.34922,0.85694 8.52384,-2.45664 1.8956,-1.97858 3.90381,-3.59742 4.46268,-3.59742 0.55888,0 1.01614,2.42767 1.01614,5.39482 0,5.03484 0.35021,5.59167 5.24853,8.34466 l 5.24851,2.94983 -5.2767,1.92394 c -4.67025,1.70281 -5.36415,2.4709 -6.0377,6.68305 -0.41856,2.61751 -1.16355,5.00789 -1.65555,5.31196 -0.49199,0.30407 -2.47076,-1.09238 -4.39728,-3.10323 z m -157.86967,-2.85312 c -5.13061,-5.4613 -8.48038,-19.89857 -4.94764,-21.32406 0.95857,-0.38679 0.74213,-0.66862 -0.55997,-0.72916 -1.82137,-0.0846 -1.93261,-0.64335 -0.78411,-3.93795 1.23162,-3.53303 5.07131,-6.16074 9.00225,-6.16074 2.14356,0 7.02933,4.7194 7.02933,6.78996 0,2.23821 -3.82116,3.63888 -5.45902,2.00101 -4.66128,-4.66127 -6.07251,3.7399 -2.2855,13.60578 2.37744,6.1937 5.06159,7.94778 6.09789,3.98495 1.00562,-3.84549 6.64663,-3.66288 6.64663,0.21516 0,7.88489 -9.26927,11.37823 -14.73986,5.55505 z m 16.8198,-8.38303 c -2.52247,-9.07282 -2.51536,-8.76888 -0.20494,-8.76888 1.03125,0 1.875,-0.50984 1.875,-1.13298 0,-0.62313 -1.02565,-0.86476 -2.27923,-0.53693 -1.88531,0.49301 -2.58089,-0.66142 -4.02461,-6.67953 -0.95996,-4.00156 -1.64964,-7.55681 -1.53262,-7.90056 0.22517,-0.66145 14.41858,-5.08455 14.86937,-4.63375 0.14514,0.14512 0.63409,1.73889 1.08656,3.54168 0.75186,2.99567 0.43116,3.35124 -3.72601,4.13113 -3.76928,0.70713 -4.48183,1.32305 -4.15857,3.59464 0.30908,2.17193 1.10409,2.66656 3.82761,2.38149 1.89062,-0.1979 3.4375,0.17797 3.4375,0.83526 0,0.6573 0.33239,2.06129 0.73865,3.11998 0.51314,1.33721 -0.25014,2.17306 -2.5,2.73775 -1.78126,0.44706 -3.23865,0.94917 -3.23865,1.1158 0,0.16663 0.60008,2.02436 1.33351,4.12828 1.24655,3.57584 1.59249,3.75105 5.30425,2.68653 5.99194,-1.71846 7.11224,-1.41958 7.11224,1.89751 0,2.59824 -0.97458,3.31963 -6.75488,5 -3.71519,1.08004 -7.27922,1.9637 -7.92007,1.9637 -0.64084,0 -2.10115,-3.36651 -3.24511,-7.48112 z m 20.98537,-2.0764 c -3.78873,-4.08812 -3.88644,-6.18617 -0.33138,-7.11584 1.86578,-0.48791 3.27756,0.0613 4.44588,1.72921 2.07004,2.9554 3.54701,3.11051 4.55697,0.4786 1.15714,-3.01545 -1.25558,-6.37214 -5.69173,-7.91859 -6.20281,-2.16231 -8.54505,-4.93511 -8.54505,-10.11586 0,-5.32797 3.00169,-8.75 7.67522,-8.75 3.38915,0 8.57478,4.09896 8.57478,6.7779 0,2.69061 -5.20621,3.41791 -6.99129,0.97667 -0.85487,-1.16909 -1.95104,-1.72891 -2.43593,-1.24402 -1.63578,1.63579 0.49996,4.53804 4.8631,6.60849 5.78238,2.74391 8.28023,5.70356 9.10545,10.78881 1.53633,9.46726 -8.77893,14.74115 -15.22602,7.78463 z m 20.22826,-4.2832 c -3.72924,-2.93343 -4.32901,-7.0904 -1.19644,-8.29249 1.37543,-0.5278 2.71842,0.13097 3.90247,1.91423 2.46777,3.71668 5.2504,3.47068 5.2504,-0.46416 0,-2.3099 -1.10314,-3.76729 -4.02114,-5.3125 -5.68427,-3.01006 -10.97886,-8.7891 -10.97886,-11.98342 0,-9.7492 11.62135,-11.35938 16.76517,-2.32287 1.4066,2.47108 -4.51514,4.18789 -6.25202,1.81258 -1.37239,-1.87686 -4.26315,-1.17321 -4.26315,1.03771 0,0.63297 2.39062,2.34535 5.3125,3.80533 6.96937,3.48239 9.62572,6.97721 9.6597,12.70881 0.0514,8.66507 -7.42654,12.40798 -14.17863,7.09678 z m 29.34739,-8.32602 c -2.05595,-2.05594 -4.54533,-6.61292 -5.65646,-10.35449 -4.30494,-14.4963 -1.36865,-22.03338 8.328,-21.37687 2.35594,0.1595 7.1875,4.40379 7.1875,6.31386 0,1.93083 -4.99322,2.89598 -6.88023,1.3299 -0.96815,-0.80349 -2.39183,-1.07055 -3.16377,-0.59346 -1.76535,1.09104 -0.3963,12.29076 2.09766,17.1603 2.04613,3.99511 5.44634,4.5804 5.44634,0.9375 0,-1.375 -0.80585,-2.5 -1.79076,-2.5 -1.7439,0 -4.02031,-4.6056 -2.85325,-5.77265 0.32133,-0.32135 2.5413,-0.90185 4.93325,-1.29 3.7988,-0.61646 4.44879,-0.33296 5.13781,2.24095 1.2951,4.83801 0.9295,11.70439 -0.73955,13.88937 -0.85938,1.12503 -3.09521,2.41495 -4.96854,2.86653 -2.72573,0.65704 -4.13946,0.0876 -7.078,-2.85094 z m 17.44248,-3.24485 c -0.56614,-1.49237 -2.71677,-9.03401 -4.77918,-16.75918 l -3.74982,-14.04578 4.53527,-1.25975 c 7.59344,-2.10921 10.98491,-1.58283 13.94128,2.1638 2.20427,2.79349 2.57285,4.46334 1.96728,8.91308 -0.6273,4.60961 -0.14651,6.52187 3.04014,12.09156 l 3.78529,6.616 -2.77175,0.87972 c -3.53279,1.12126 -7.34785,-3.16271 -6.45269,-7.2458 0.42101,-1.92036 0.25421,-2.30841 -0.52402,-1.21909 -0.84929,1.18878 -1.5592,0.70864 -2.77233,-1.875 -2.25912,-4.81136 -3.14816,-1.53326 -1.43227,5.28114 1.84291,7.31888 1.7864,7.72286 -1.18925,8.50101 -1.8491,0.48356 -2.85694,-0.0884 -3.59795,-2.04171 z m 3.26932,-19.15231 c -0.44765,-0.44765 0.1125,-1.49131 1.24476,-2.31925 2.45585,-1.79576 1.40119,-5.61685 -1.55031,-5.61685 -1.1172,0 -2.32545,1.125 -2.68502,2.5 -0.35958,1.375 -1.29129,2.51994 -2.07048,2.5443 -0.77919,0.0244 -0.01,0.84817 1.70829,1.8307 3.4072,1.94773 4.62472,2.33306 3.35276,1.0611 z m 16.05051,15.40438 c -0.24408,-0.80602 -0.77108,-8.85328 -1.17111,-17.88283 -0.71979,-16.2477 -0.69826,-16.4251 2.08278,-17.16799 3.52143,-0.94067 3.86795,-0.46586 11.56006,15.84035 3.4375,7.28702 6.61908,13.27631 7.07018,13.30955 0.4511,0.0332 -1.09359,-7.11143 -3.43265,-15.87706 -2.33905,-8.76563 -4.255,-16.01255 -4.25768,-16.10428 -0.002,-0.0917 1.36681,-0.42899 3.04329,-0.74947 2.47754,-0.47361 3.78926,0.44933 7.00728,4.93033 2.17753,3.03216 4.16563,5.30654 4.41798,5.05418 0.25236,-0.25236 -0.12898,-2.58771 -0.84741,-5.18968 -1.5441,-5.59227 -0.80285,-8.25358 2.29886,-8.25358 1.8191,0 3.031,2.86934 6.28923,14.89055 4.74472,17.50566 4.81278,18.36471 1.52328,19.22494 -1.95867,0.51221 -3.61221,-0.87847 -7.5,-6.3077 -2.74305,-3.83063 -4.98736,-6.69404 -4.98736,-6.36315 0,0.33088 0.88201,3.57169 1.96004,7.20177 1.07802,3.6301 1.73615,6.82408 1.4625,7.09772 -0.27365,0.27364 -3.15534,1.29742 -6.40374,2.27504 l -5.9062,1.77752 -1.96253,-4.11547 c -2.77573,-5.82078 -6.65007,-4.76116 -6.65007,1.81878 0,3.70375 -0.54976,4.85219 -2.57646,5.38219 -1.4267,0.37309 -2.77451,0.0198 -3.02027,-0.79171 z m -148.15327,-9.6824 c 0,-19.11441 6.55909,-38.98126 19.0205,-57.61127 8.08983,-12.09443 8.63134,-12.63975 11.46986,-11.55051 1.95542,0.75037 -1.00764,5.13793 -10.17786,15.0709 -1.54688,1.67554 -2.8125,3.86462 -2.8125,4.86462 0,1 -0.84375,1.81818 -1.875,1.81818 -1.73936,0 -2.45787,2.16742 -1.96831,5.9375 0.1116,0.85938 -0.47801,1.5625 -1.31023,1.5625 -0.83222,0 -1.18467,0.32846 -0.78321,0.72991 0.40145,0.40145 -0.38528,3.91708 -1.74829,7.8125 -3.33537,9.53236 -6.06496,23.96072 -6.06496,32.05881 0,4.74138 -0.53438,6.83637 -1.875,7.35082 -1.55679,0.59738 -1.875,-0.76778 -1.875,-8.04396 z m 5.46028,-3.48726 c 0.45085,-5.40604 1.83984,-13.70292 3.08665,-18.4375 2.67269,-10.14917 8.77955,-24.23332 10.50751,-24.23332 0.66717,0 0.90339,0.70313 0.52494,1.5625 -7.66035,17.39504 -10.47171,27.3502 -11.62329,41.15864 -0.44854,5.37837 -1.37803,9.77886 -2.06553,9.77886 -0.79685,0 -0.95284,-3.56325 -0.43028,-9.82918 z m 187.66982,0.89637 c -0.35254,-0.9307 -2.02458,-6.73398 -3.71565,-12.89616 -2.34765,-8.55478 -2.71583,-11.4475 -1.55705,-12.23388 0.83468,-0.56645 -0.59178,-0.66518 -3.1699,-0.21941 -4.41203,0.76286 -4.6875,0.6215 -4.6875,-2.40545 0,-2.66438 0.80394,-3.4267 4.6875,-4.44486 11.41044,-2.99148 11.17235,-2.99351 11.98554,0.10224 0.41975,1.59793 0.35565,3.0551 -0.14244,3.23815 -3.90373,1.43466 -3.92621,2.44031 -0.35023,15.6598 1.99103,7.36032 3.14847,13.38238 2.57208,13.38238 -0.57639,0 -1.933,0.33961 -3.01468,0.75469 -1.09797,0.42133 -2.24982,0.008 -2.60767,-0.9375 z m 13.02426,-3.11918 c -0.11087,-1.24438 -0.15845,-1.4253 -4.05909,-15.44801 -5.19754,-18.6851 -5.20655,-17.08782 0.10288,-18.24567 2.5723,-0.56096 5.51244,-0.94434 6.53366,-0.85197 1.02122,0.0924 2.25795,-0.48121 2.7483,-1.27462 0.56819,-0.91933 1.31499,-0.32001 2.05898,1.65235 1.47594,3.91277 1.04764,4.58751 -3.55338,5.59806 -2.9025,0.63749 -3.73566,1.50062 -3.73566,3.86998 0,2.62627 0.43246,2.94096 3.11599,2.26744 2.50015,-0.6275 3.34006,-0.19988 4.24976,2.16368 0.95095,2.47077 0.66205,3.13161 -1.79171,4.09843 -2.39146,0.94227 -2.79643,1.79791 -2.2185,4.68749 0.4408,2.20401 0.17752,3.53483 -0.69929,3.53483 -0.77344,0 -1.40625,0.5957 -1.40625,1.32378 0,0.74573 0.68228,0.89798 1.5625,0.34866 1.86116,-1.1615 5.40083,-1.94695 9.6875,-2.14967 2.32279,-0.10987 3.22521,0.55648 3.51538,2.59558 0.31976,2.24708 -0.47168,2.96945 -4.375,3.99325 -9.98254,2.61829 -11.64317,2.87814 -11.73602,1.83641 z m -153.65436,-1.47533 c 0,-2.94328 4.6321,-14.11568 8.12524,-19.59768 11.97661,-18.79565 35.31005,-29.35916 56.65491,-25.64879 4.58966,0.79783 11.71985,3.07752 15.84485,5.066 8.12458,3.91648 19.29565,12.8951 17.8668,14.36023 -0.48576,0.49809 -3.50976,-1.40637 -6.72001,-4.23215 -29.81079,-26.24051 -76.62171,-12.54611 -88.07887,25.76721 -1.3791,4.61178 -3.69292,7.29668 -3.69292,4.28518 z m -23.75,-4.05485 c 0,-5.2766 -1.73686,-8.04843 -6.20223,-9.89804 -2.08877,-0.8652 -3.79777,-1.98202 -3.79777,-2.48183 0,-0.4998 2.18886,-1.76854 4.86412,-2.81942 4.26886,-1.67685 4.97068,-2.54141 5.73487,-7.06461 0.47892,-2.83466 1.36697,-5.15393 1.97346,-5.15393 0.60649,0 2.35033,1.6875 3.8752,3.75 1.52487,2.0625 3.58235,3.75 4.57218,3.75 1.39496,0 1.6226,1.10747 1.01222,4.92456 -0.43311,2.7085 -0.28995,5.23203 0.31812,5.60784 0.60808,0.37581 1.13649,-1.55558 1.17426,-4.29198 0.0832,-6.0248 0.87546,-7.49042 4.04934,-7.49042 2.86522,0 3.06557,2.1746 0.51148,5.55141 -2.35951,3.11954 -2.32087,6.13365 0.13961,10.8917 l 1.97486,3.81895 -6.05931,-0.83336 c -5.44349,-0.74868 -6.36507,-0.50791 -9.06776,2.36896 -3.92883,4.18205 -5.07265,4.04003 -5.07265,-0.62983 z m 195.69639,-0.13078 c -1.59282,-4.79982 -8.25723,-31.38905 -7.941,-31.68253 0.20328,-0.18867 2.57963,-0.94682 5.28078,-1.68478 6.63028,-1.8114 10.57838,0.19791 14.09833,7.17508 5.25525,10.41683 5.26974,21.07623 0.0331,24.39167 -4.35734,2.75876 -10.81683,3.77266 -11.47127,1.80056 z m 7.42861,-3.53705 c 0.4249,-0.6875 0.17685,-1.25 -0.55122,-1.25 -0.72808,0 -1.32378,0.5625 -1.32378,1.25 0,0.6875 0.24805,1.25 0.55123,1.25 0.30317,0 0.89887,-0.5625 1.32377,-1.25 z m 0.48871,-13.76415 c -1.31141,-5.03355 -1.50616,-7.50432 -0.59451,-7.54223 0.74569,-0.031 -0.3317,-0.80187 -2.3942,-1.71303 -2.0625,-0.91116 -4.13827,-1.30767 -4.61285,-0.88112 -0.47456,0.42654 0.2273,4.71303 1.55969,9.52553 3.59719,12.99284 3.414,12.67487 5.8811,10.20777 1.95305,-1.95303 1.96507,-2.67147 0.16077,-9.59692 z M 189.1807,665.44254 c -0.41455,-1.54687 -0.7614,-3.97394 -0.77079,-5.39348 -0.0113,-1.71027 -1.49302,-3.28482 -4.39207,-4.66728 -2.40625,-1.14746 -4.36928,-2.51727 -4.36229,-3.04402 0.007,-0.52674 2.17266,-1.86431 4.8126,-2.97236 4.20017,-1.76292 4.90441,-2.66831 5.63647,-7.24633 0.4786,-2.99305 1.36983,-4.90212 2.08279,-4.46149 0.68542,0.42361 0.8656,1.43446 0.40041,2.24633 -0.46519,0.81187 -0.37547,1.04911 0.19938,0.5272 0.57485,-0.52192 2.33018,0.25827 3.90075,1.73374 2.28401,2.14572 3.86632,2.54711 7.90524,2.00538 2.77731,-0.37251 5.04755,-0.30895 5.04498,0.14126 -0.003,0.4502 -1.10719,2.62676 -2.45471,4.83679 -2.24846,3.68763 -2.2995,4.37854 -0.62033,8.39735 2.52717,6.04837 2.49652,6.09326 -3.54124,5.18785 -4.69047,-0.70338 -5.74747,-0.40463 -8.34289,2.35807 -3.65285,3.88828 -4.53525,3.94461 -5.4983,0.35099 z m 106.2532,-1.58048 c -0.43508,-1.13382 -0.79106,-3.69155 -0.79106,-5.68385 0,-3.00087 -0.90785,-4.08551 -5.29146,-6.32186 l -5.29145,-2.6995 5.56507,-2.63841 c 4.97598,-2.3591 5.6826,-3.233 6.67521,-8.25529 l 1.11014,-5.61689 3.92875,4.65496 c 3.06656,3.63341 4.54742,4.49079 6.7479,3.90686 1.55054,-0.41145 3.67258,-0.0398 4.71567,0.82586 1.69145,1.40378 1.67729,1.90849 -0.13087,4.6681 -1.87875,2.86733 -1.86647,3.45092 0.16743,7.96132 1.20714,2.67694 1.93452,5.12744 1.61641,5.44554 -0.3181,0.31811 -2.72349,-0.0139 -5.3453,-0.73784 -4.46935,-1.23404 -5.02035,-1.07059 -8.82615,2.61814 -3.43131,3.32576 -4.18159,3.61546 -4.85029,1.87286 z m 40.45894,-10.12229 c -14.40991,-23.00143 -42.40968,-40.40135 -71.25,-44.27696 -25.16895,-3.38224 -53.02373,4.03607 -73.80126,19.65482 -5.11698,3.84651 -8.0766,5.37883 -8.41694,4.35781 -0.39223,-1.1767 -0.95159,-1.22064 -2.21291,-0.17383 -1.06925,0.88739 -2.42823,0.98665 -3.70743,0.27078 -1.7867,-0.99989 -1.80345,-1.30938 -0.14535,-2.68548 1.38789,-1.15185 2.53071,-1.20394 4.40509,-0.2008 2.1297,1.13978 3.57931,0.55156 9.14241,-3.70977 9.1025,-6.97251 24.66045,-14.46827 36.61139,-17.63922 13.89798,-3.68755 37.19042,-3.68191 51.05317,0.0124 16.16942,4.30897 33.38368,14.11227 45.26973,25.78054 9.01094,8.84583 19.3021,21.99939 19.3021,24.67082 0,2.49728 -2.26359,0.30211 -6.25,-6.06109 z m 5.70973,1.70277 c -17.90762,-31.2325 -55.87268,-52.10353 -92.27286,-50.72634 -6.72671,0.2545 -10.94526,-0.0674 -10.95665,-0.83616 -0.01,-0.6875 -0.45278,-0.56659 -0.98356,0.26869 -0.82093,1.29189 -3.38431,2.0559 -15.66293,4.66834 -8.7467,1.86098 -28.78133,12.63281 -36.61147,19.68456 -2.46999,2.22444 -2.70973,2.24054 -3.47984,0.23366 -0.4549,-1.18546 -0.38617,-2.48393 0.15274,-2.88551 0.53891,-0.40157 5.36253,-3.64902 10.71915,-7.21656 13.17054,-8.77164 37.13569,-17.90561 37.13569,-14.15373 0,0.7827 0.57167,1.06978 1.27039,0.63795 0.69871,-0.43183 0.99415,-1.23211 0.65653,-1.77839 -1.7637,-2.85371 28.75857,-3.36999 40.57308,-0.68629 4.46875,1.01509 9.53125,2.14755 11.25,2.51659 4.96175,1.06534 23.8032,10.45547 30.35632,15.12888 14.61713,10.42431 26.28413,23.19546 33.24778,36.39431 2.5021,4.74247 -2.64195,3.55047 -5.39438,-1.25 z M 164.9293,654.27067 c 0.27213,-0.81641 1.16314,-1.70716 1.98001,-1.97945 0.91344,-0.30448 1.1928,0.26698 0.72564,1.48437 -0.8719,2.27214 -3.45559,2.7449 -2.70565,0.49508 z m 60.5014,-6.32813 c -0.41455,-1.54687 -0.7614,-3.95021 -0.77079,-5.34075 -0.0108,-1.59761 -1.62749,-3.3955 -4.39207,-4.88433 -2.40625,-1.29585 -4.375,-2.74469 -4.375,-3.21965 0,-0.47495 2.16557,-1.7142 4.81238,-2.7539 4.23327,-1.66288 4.91194,-2.513 5.63977,-7.06461 0.45507,-2.84584 1.13831,-5.17426 1.51832,-5.17426 0.38002,0 2.16338,1.74991 3.96304,3.88868 2.98616,3.54885 3.74376,3.82403 8.6693,3.14891 2.96845,-0.40687 5.39509,-0.32865 5.39251,0.17382 -0.002,0.50248 -1.10718,2.7218 -2.45471,4.93183 -2.24845,3.68763 -2.29949,4.37854 -0.62032,8.39735 2.50103,5.98581 2.51517,5.96538 -3.50637,5.0624 -4.61428,-0.69196 -5.80657,-0.36415 -8.8144,2.42341 -4.21502,3.90635 -4.12689,3.89919 -5.06166,0.4111 z m 39.89233,-5.38021 c -0.73189,-4.88055 -1.4551,-5.96727 -5.14095,-7.72492 -2.35908,-1.12497 -4.28924,-2.44264 -4.28924,-2.92816 0,-0.48552 2.17241,-1.75199 4.82759,-2.81438 4.21933,-1.68824 4.92992,-2.57157 5.63977,-7.01072 0.97118,-6.07339 2.21159,-6.34419 5.8237,-1.27144 2.52373,3.54425 3.09173,3.75062 8.21013,2.98307 3.02435,-0.45353 5.49881,-0.40525 5.49881,0.10729 0,0.51253 -1.15201,2.79587 -2.56001,5.07408 l -2.56003,4.1422 2.58543,5.06784 c 2.84346,5.57366 2.27351,6.02186 -4.96539,3.90466 -2.40297,-0.70281 -4.17548,-0.0979 -7.67156,2.61801 l -4.54655,3.532 -0.8517,-5.67953 z m -94.43019,3.42657 c 0,-0.55887 1.6875,-2.63286 3.75,-4.60886 4.40534,-4.22058 4.88549,-3.30959 1.01493,1.92562 -2.64711,3.5804 -4.76493,4.773 -4.76493,2.68324 z"
       id="path4714"
       inkscape:connector-curvature="0" />
  </g>
</svg>
