<?xml version="1.0" encoding="UTF-8" standalone="no"?>
<!-- Created with Inkscape (http://www.inkscape.org/) -->

<svg
   xmlns:dc="http://purl.org/dc/elements/1.1/"
   xmlns:cc="http://creativecommons.org/ns#"
   xmlns:rdf="http://www.w3.org/1999/02/22-rdf-syntax-ns#"
   xmlns:svg="http://www.w3.org/2000/svg"
   xmlns="http://www.w3.org/2000/svg"
   xmlns:sodipodi="http://sodipodi.sourceforge.net/DTD/sodipodi-0.dtd"
   xmlns:inkscape="http://www.inkscape.org/namespaces/inkscape"
   width="144.4978mm"
   height="46.667812mm"
   viewBox="0 0 512.00009 165.35839"
   id="svg5260"
   version="1.1"
   inkscape:version="0.91 r13725"
   sodipodi:docname="kong.svg">
  <defs
     id="defs5262" />
  <sodipodi:namedview
     id="base"
     pagecolor="#ffffff"
     bordercolor="#666666"
     borderopacity="1.0"
     inkscape:pageopacity="0.0"
     inkscape:pageshadow="2"
     inkscape:zoom="0.35"
     inkscape:cx="-342.92853"
     inkscape:cy="-39.62497"
     inkscape:document-units="px"
     inkscape:current-layer="layer1"
     showgrid="false"
     fit-margin-top="0"
     fit-margin-left="0"
     fit-margin-right="0"
     fit-margin-bottom="0"
     inkscape:window-width="1920"
     inkscape:window-height="1018"
     inkscape:window-x="-8"
     inkscape:window-y="-8"
     inkscape:window-maximized="1" />
  <metadata
     id="metadata5265">
    <rdf:RDF>
      <cc:Work
         rdf:about="">
        <dc:format>image/svg+xml</dc:format>
        <dc:type
           rdf:resource="http://purl.org/dc/dcmitype/StillImage" />
        <dc:title></dc:title>
      </cc:Work>
    </rdf:RDF>
  </metadata>
  <g
     inkscape:label="Calque 1"
     inkscape:groupmode="layer"
     id="layer1"
     transform="translate(-59.3571,-327.37885)">
    <path
       style="fill:#f9f9f9"
       d="m 59.3571,474.75894 0,-17.97281 13.662171,-17.35445 13.662095,-17.35443 5.187151,0 5.187071,0 13.320292,-11.41773 c 7.32622,-6.27968 13.4011,-11.38563 13.49984,-11.34643 0.0987,0.0389 8.08701,9.45509 17.75184,20.92419 11.13562,13.21439 17.52418,20.98397 17.44067,21.21072 -0.0725,0.1968 -2.30673,3.69908 -4.96504,7.7828 l -4.83329,7.42503 -16.41945,0.0678 -16.41952,0.0678 -4.74599,6.13322 c -2.61035,3.37326 -8.85549,11.45989 -13.878027,17.97027 l -9.132025,11.83717 -14.658932,0 -14.658856,0 0,-17.97288 z m 65.33385,17.42086 c 0.0717,-0.30361 0.32166,-1.9872 0.55629,-3.74123 l 0.42651,-3.18928 -5.08025,-7.93719 c -2.79411,-4.36537 -5.04725,-8.02692 -5.00691,-8.13672 0.0404,-0.10992 1.03808,-1.4232 2.21722,-2.91869 l 2.14388,-2.71899 16.87897,0 16.87898,0 8.71429,10.8558 8.71427,10.85579 -1.48701,3.73901 -1.48702,3.73902 -21.79943,0 -21.7995,0 0.12976,-0.55203 z m 78.02906,0 c 0.0798,-0.30453 0.57855,-2.1875 1.10807,-4.18453 l 0.96277,-3.63097 -38.28918,-45.30614 c -21.05901,-24.9184 -38.28802,-45.41928 -38.28672,-45.55744 0,-0.13808 3.50981,-6.40594 7.79666,-13.92834 l 7.79428,-13.67704 9.11053,0.008 9.11053,0.008 40.96982,48.47812 c 22.53344,26.66298 40.9972,48.65682 41.03067,48.87519 0.0336,0.21836 -1.35177,6.91054 -3.07821,14.87144 l -3.13902,14.47434 -17.61773,0.0634 -17.61765,0.0634 0.14512,-0.55362 z m 322.94478,-23.90419 -4.10925,-4.59252 0,-1.91345 0,-1.91354 15.82367,0 15.8237,0 0,-4.66121 0,-4.66129 -13.21561,0 c -15.19141,0 -16.25005,-0.0925 -19.55433,-1.71011 -6.25165,-3.06043 -8.2418,-9.32774 -8.61055,-27.11595 -0.43026,-20.75517 2.1464,-31.01351 8.58611,-34.1838 3.30392,-1.62648 6.12772,-1.92445 17.1293,-1.80718 l 6.78248,0.0725 4.37996,3.96379 4.37996,3.96379 0.0674,-3.97477 0.0674,-3.97469 9.07109,0 9.07106,0 0,35.7919 c 0,22.82752 -0.0918,36.71224 -0.25349,38.33255 -0.44693,4.4792 -1.28901,6.56864 -3.62421,8.99249 -1.65163,1.71431 -3.53857,2.72853 -6.30341,3.38791 -1.48008,0.35301 -3.76766,0.42248 -16.55966,0.50291 l -14.84237,0.0933 -4.10925,-4.59243 z m 27.78343,-50.24801 0,-18.03159 -11.89842,0 -11.89842,0 0,18.03159 0,18.03167 11.89842,0 11.89842,0 0,-18.03167 z m -263.72786,-8.83178 0,-41.33784 9.69047,0 9.69045,0 0,16.06901 0,16.06902 2.78907,0 2.78915,0 12.21274,-16.06902 12.21272,-16.06901 10.63496,0 c 5.84922,0 10.63495,0.0443 10.63495,0.0987 0,0.0541 -6.79805,8.69293 -15.10682,19.19693 -8.30876,10.50398 -15.16336,19.23138 -15.23252,19.39416 -0.10736,0.25277 6.25402,9.06608 27.80857,38.52729 l 3.99361,5.45851 -11.37603,0 -11.37602,0 -12.10963,-17.16215 -12.10959,-17.16208 -2.88254,-0.0112 -2.88262,-0.0112 0,17.17299 0,17.17298 -9.69045,0 -9.69047,0 0,-41.33778 z m 91.38476,41.1625 c -1.6515,-0.22836 -3.76075,-0.89025 -5.09316,-1.59827 -1.76264,-0.93653 -4.44773,-3.72635 -5.5025,-5.71713 -2.47586,-4.67295 -3.47621,-13.62047 -3.18074,-28.44988 0.24639,-12.36675 0.96554,-17.0449 3.31871,-21.58891 1.1211,-2.16477 3.5943,-4.71397 5.42846,-5.59506 3.20043,-1.53759 2.95216,-1.51944 20.8529,-1.51944 17.90437,0 17.65927,-0.0182 20.8529,1.52165 1.65182,0.7963 4.28693,3.37798 5.33293,5.22489 2.50789,4.42804 3.49888,11.65447 3.49888,25.51412 0,10.30475 -0.51922,16.61181 -1.73576,21.08431 -1.19274,4.38489 -4.05464,8.12459 -7.45247,9.73819 -3.13325,1.488 -3.9352,1.54694 -20.61915,1.51552 -8.23075,-0.016 -15.29621,-0.0739 -15.701,-0.12992 z m 27.59943,-32.33072 0,-18.03159 -11.77576,0 -11.77576,0 0,18.03159 0,18.03167 11.77576,0 11.77576,0 0,-18.03167 z m 31.40201,0.12272 0,-32.38333 8.9484,0 8.94843,0 0.0674,3.95342 0.0674,3.95341 4.37758,-3.95341 4.37757,-3.95342 7.52087,-0.0472 c 12.09174,-0.0766 13.85662,0.0717 16.91792,1.42137 1.84173,0.81194 4.24334,3.19058 5.06106,5.01271 1.51296,3.37128 1.45728,2.23384 1.54616,31.57808 l 0.0811,26.80213 -8.96272,0 -8.96273,0 0,-25.26881 0,-25.26878 -11.03977,0 -11.03978,0 0,25.26878 0,25.26881 -8.95448,0 -8.95448,0 0,-32.38331 z m -258.96784,-40.2169 -15.89594,-18.90719 -9.15178,0 c -5.03344,0 -9.14866,-0.0829 -9.14491,-0.18404 0,-0.10112 1.63889,-3.18709 3.63365,-6.85748 l 3.62684,-6.67349 10.95354,-8.96619 c 6.0245,-4.93142 11.07363,-8.96619 11.2204,-8.96619 0.14672,0 8.73456,6.69657 19.0841,14.88118 10.34951,8.18468 18.84276,14.89842 18.87394,14.91946 0.0312,0.0213 -1.02954,1.19143 -2.35698,2.6009 l -2.41357,2.5627 3.2769,4.61011 3.27696,4.61013 -0.008,4.9552 -0.008,4.95522 -9.2297,7.56488 c -5.0763,4.16072 -9.3687,7.61832 -9.53865,7.68352 -0.18307,0.0702 -6.78564,-7.58509 -16.20488,-18.78872 z"
       id="path5819"
       inkscape:connector-curvature="0" />
  </g>
</svg>
