<?xml version="1.0" encoding="UTF-8" standalone="no"?>
<!-- Created with Inkscape (http://www.inkscape.org/) -->

<svg
   xmlns:dc="http://purl.org/dc/elements/1.1/"
   xmlns:cc="http://creativecommons.org/ns#"
   xmlns:rdf="http://www.w3.org/1999/02/22-rdf-syntax-ns#"
   xmlns:svg="http://www.w3.org/2000/svg"
   xmlns="http://www.w3.org/2000/svg"
   xmlns:sodipodi="http://sodipodi.sourceforge.net/DTD/sodipodi-0.dtd"
   xmlns:inkscape="http://www.inkscape.org/namespaces/inkscape"
   width="89.04525mm"
   height="106.44123mm"
   viewBox="0 0 315.51467 377.15397"
   id="svg4149"
   version="1.1"
   inkscape:version="0.91 r13725"
   sodipodi:docname="paradigm.svg">
  <defs
     id="defs4151" />
  <sodipodi:namedview
     id="base"
     pagecolor="#ffffff"
     bordercolor="#666666"
     borderopacity="1.0"
     inkscape:pageopacity="0.0"
     inkscape:pageshadow="2"
     inkscape:zoom="0.98994949"
     inkscape:cx="231.06029"
     inkscape:cy="162.96438"
     inkscape:document-units="px"
     inkscape:current-layer="layer1"
     showgrid="false"
     fit-margin-top="0"
     fit-margin-left="0"
     fit-margin-right="0"
     fit-margin-bottom="0"
     inkscape:window-width="1920"
     inkscape:window-height="1018"
     inkscape:window-x="-8"
     inkscape:window-y="-8"
     inkscape:window-maximized="1" />
  <metadata
     id="metadata4154">
    <rdf:RDF>
      <cc:Work
         rdf:about="">
        <dc:format>image/svg+xml</dc:format>
        <dc:type
           rdf:resource="http://purl.org/dc/dcmitype/StillImage" />
        <dc:title></dc:title>
      </cc:Work>
    </rdf:RDF>
  </metadata>
  <g
     inkscape:label="Calque 1"
     inkscape:groupmode="layer"
     id="layer1"
     transform="translate(-78.732577,-367.23214)">
    <path
       style="fill:#f9f9f9"
       d="m 78.755669,743.35031 c -0.218611,-0.56969 1.139866,-9.05748 3.018844,-18.86175 l 3.416322,-17.82596 -2.012651,-1.73121 -2.012645,-1.7312 2.088545,-7.87966 c 1.406946,-5.30814 2.429431,-7.87966 3.13309,-7.87966 1.549191,0 16.010016,3.86198 16.712696,4.46337 0.6688,0.5724 -2.9135,14.59022 -4.103949,16.0591 -0.412062,0.50844 -1.623649,0.92661 -2.692408,0.92928 -1.859564,0.004 -2.147049,0.60149 -6.67881,13.86653 -7.388697,21.62763 -7.388416,21.62696 -9.022389,21.62696 -0.797049,0 -1.628035,-0.46611 -1.846645,-1.0358 z m 96.752921,-1.36773 c 1.00231,-1.32195 50.17006,-68.13091 109.26168,-148.46437 59.09162,-80.33346 107.89778,-146.54815 108.45814,-147.14375 0.86678,-0.9213 1.01883,2.36231 1.01883,22.00156 l 0,23.08449 -4.34674,0 c -5.17158,0 -6.72012,1.17445 -5.39198,4.08941 0.7511,1.6485 1.26746,1.82698 5.28557,1.82698 l 4.45315,0 0,5.91638 0,5.91639 -4.75723,0 c -3.98755,0 -4.82783,0.22245 -5.19361,1.37491 -0.94051,2.96328 0.2116,3.80193 5.2229,3.80193 l 4.72794,0 0,5.91639 0,5.91639 -4.45315,0 c -4.01811,0 -4.53447,0.17847 -5.28557,1.82697 -1.32814,2.91496 0.2204,4.08942 5.39198,4.08942 l 4.34674,0 0,5.91639 0,5.91638 -4.34674,0 c -5.17158,0 -6.72012,1.17446 -5.39198,4.08942 0.7511,1.6485 1.26746,1.82697 5.28557,1.82697 l 4.45315,0 0,5.54662 0,5.54661 -4.01469,0 c -5.11151,0 -7.09741,1.60035 -5.89009,4.74658 0.34456,0.89791 1.5478,1.16981 5.17684,1.16981 l 4.72794,0 0,5.8811 0,5.8811 -4.54528,0.22017 c -3.36022,0.16278 -4.75717,0.55761 -5.35795,1.51439 -1.53825,2.44975 0.30058,3.85783 5.35795,4.10281 l 4.54528,0.22017 0,5.8811 0,5.8811 -4.72794,0 c -3.62904,0 -4.83228,0.2719 -5.17684,1.16981 -1.20732,3.14623 0.77858,4.74658 5.89009,4.74658 l 4.01469,0 0,5.54661 0,5.54662 -4.45315,0 c -4.01811,0 -4.53447,0.17847 -5.28557,1.82697 -1.32814,2.91496 0.2204,4.08942 5.39198,4.08942 l 4.34674,0 0,5.91638 0,5.91639 -4.34674,0 c -5.17158,0 -6.72012,1.17446 -5.39198,4.08942 0.7511,1.6485 1.26746,1.82697 5.28557,1.82697 l 4.45315,0 0,5.91639 0,5.91639 -4.75723,0 c -3.98755,0 -4.82783,0.22245 -5.19361,1.37491 -0.94051,2.96327 0.2116,3.80193 5.2229,3.80193 l 4.72794,0 0,5.91639 0,5.91638 -4.45315,0 c -4.01811,0 -4.53447,0.17848 -5.28557,1.82698 -1.32814,2.91496 0.2204,4.08941 5.39198,4.08941 l 4.34674,0 0,5.91639 0,5.91639 -4.34674,0 c -5.17158,0 -6.72012,1.17445 -5.39198,4.08941 0.7511,1.6485 1.26746,1.82698 5.28557,1.82698 l 4.45315,0 0,5.54661 0,5.54662 -4.01469,0 c -5.11151,0 -7.09741,1.60035 -5.89009,4.74657 0.34456,0.89792 1.5478,1.16981 5.17684,1.16981 l 4.72794,0 0,5.91639 0,5.91639 -4.34674,0 c -5.17158,0 -6.72012,1.17446 -5.39198,4.08942 0.7511,1.64849 1.26746,1.82697 5.28557,1.82697 l 4.45315,0 0,9.9839 0,9.98391 -110.28051,0 -110.28051,0 1.82237,-2.40353 z M 352.09297,635.52456 c 0,-39.46159 -0.27504,-67.8904 -0.65289,-67.4838 -0.35909,0.38641 -21.54671,29.3231 -47.0836,64.30375 -25.5369,34.98064 -47.71739,65.34835 -49.28997,67.4838 l -2.85925,3.88263 49.94286,0 49.94285,0 0,-68.18638 z M 95.654515,684.66042 c -13.738415,-3.75992 -14.975858,-4.23405 -14.975858,-5.738 0,-0.90169 2.99038,-12.91537 6.645281,-26.69709 4.629655,-17.45724 7.041071,-25.34935 7.950146,-26.01931 0.71768,-0.5289 2.467489,-0.86306 3.888472,-0.74258 l 2.583604,0.21907 8.28674,-31.05801 c 4.5577,-17.0819 8.30369,-31.5572 8.32443,-32.16733 0.0238,-0.70119 -2.82598,-2.44115 -7.74581,-4.72923 -6.62269,-3.08004 -19.545726,-10.94477 -24.290159,-14.78256 -1.315938,-1.06446 -1.033364,-1.59577 5.827155,-10.95616 3.965584,-5.4106 7.451875,-10.10556 7.747302,-10.43327 0.295432,-0.3277 3.829952,1.64132 7.854492,4.3756 4.02454,2.73428 9.64693,6.05515 12.49419,7.37969 5.6753,2.64016 5.48984,2.7051 6.5825,-2.30468 0.46579,-2.13561 0.29481,-2.33329 -3.72241,-4.30352 -5.22811,-2.5641 -15.14528,-8.88577 -16.78907,-10.70214 -1.15438,-1.27557 -1.04982,-1.58956 1.7873,-5.36724 1.65737,-2.20682 3.23688,-3.95629 3.51003,-3.88771 0.27314,0.0686 2.81538,1.68044 5.64942,3.58191 6.71607,4.50606 12.25863,7.2885 12.98805,6.5202 0.60718,-0.63954 12.55041,-45.22065 12.55041,-46.84755 0,-0.51195 -1.35963,-2.40586 -3.02141,-4.20867 -8.99932,-9.76311 -10.64383,-25.42697 -3.88104,-36.96678 2.55395,-4.35801 9.87023,-10.9183 13.88746,-12.45249 l 3.36867,-1.28651 0,-21.65932 0,-21.65932 2.27554,-2.27554 c 2.05482,-2.05482 2.71834,-2.27393 6.84082,-2.25908 4.82558,0.0174 6.9447,1.05567 8.54625,4.18734 0.55023,1.07592 0.82935,8.6085 0.83583,22.55623 l 0.01,20.94086 4.39053,2.10802 c 5.60086,2.68913 11.24706,8.61845 14.18462,14.89585 5.63613,12.04413 2.35949,27.63153 -7.60057,36.15698 l -2.91183,2.49241 5.95912,22.46267 c 3.27752,12.35447 6.10697,22.87665 6.28765,23.38261 0.26039,0.72915 0.75552,0.73241 2.38722,0.0158 3.52166,-1.54678 10.80282,-5.87468 13.74069,-8.16741 1.54408,-1.20501 2.89969,-2.0676 3.01249,-1.91688 0.1128,0.15072 1.8072,2.38823 3.76534,4.97222 l 3.56028,4.69819 -2.13547,1.72413 c -3.20653,2.58887 -12.9961,8.30917 -17.23453,10.07059 -3.99371,1.65971 -4.08475,1.95169 -2.20269,7.06416 l 0.6006,1.63151 4.75089,-2.15416 c 5.61005,-2.54371 11.31751,-5.82976 16.26243,-9.363 1.96494,-1.404 3.86147,-2.45075 4.21451,-2.32613 1.14211,0.40318 15.48326,20.00696 15.09531,20.63468 -0.20655,0.3342 -3.42711,2.64879 -7.15679,5.14354 -6.95909,4.65485 -16.68892,9.80953 -22.9701,12.16913 -3.39928,1.27697 -3.52621,1.42756 -3.0535,3.62248 0.27126,1.25957 5.27708,21.86541 11.12403,45.79076 l 10.63083,43.50063 -7.11165,9.59625 c -3.91141,5.27794 -7.20285,9.49763 -7.3143,9.37709 -0.11142,-0.12056 -5.74341,-22.68297 -12.51549,-50.13871 -6.77209,-27.45574 -12.62601,-51.10061 -13.00871,-52.54414 l -0.69582,-2.62462 -6.11282,0.92032 c -8.456,1.2731 -26.07511,1.21599 -34.8932,-0.1131 -4.03342,-0.60793 -7.46888,-0.96994 -7.63437,-0.80445 -0.16549,0.16548 -3.94415,14.05992 -8.39702,30.87652 -4.45287,16.8166 -8.24461,31.07483 -8.42606,31.68496 -0.20735,0.69715 0.53584,1.52148 2.00024,2.21864 1.2816,0.61013 2.66682,1.66583 3.07827,2.34602 0.55723,0.92116 -0.99126,7.80579 -6.06914,26.98359 -3.74948,14.16079 -7.22582,26.13114 -7.7252,26.60078 -0.69192,0.65072 -4.47115,-0.12129 -15.883805,-3.2447 z M 176.62641,542.05055 c 2.14039,-0.43092 2.34498,-0.68861 1.92546,-2.42521 -1.24884,-5.16964 -1.1607,-5.1086 -6.29245,-4.35781 -3.89486,0.56982 -11.92233,0.43843 -24.55978,-0.40199 -1.90722,-0.12684 -2.22514,0.188 -3.07916,3.04938 -0.71539,2.39692 -0.73824,3.27213 -0.0918,3.51759 4.05249,1.53888 25.47512,1.95138 32.09776,0.61804 z m -2.96021,-19.08692 c 0.16316,-0.16316 -2.51882,-10.89567 -5.95995,-23.85003 -3.44113,-12.95436 -6.45509,-23.05419 -6.69768,-22.44406 -0.48552,1.2211 -12.29145,45.53513 -12.29145,46.13647 0,0.9771 23.97812,1.12859 24.94908,0.15762 z m -2.95159,-59.87802 c 9.22313,-4.76947 13.40481,-14.89752 10.38668,-25.15657 -1.20961,-4.11161 -8.02078,-10.92278 -12.13238,-12.13238 -4.5046,-1.32522 -11.24587,-1.09061 -14.77996,0.51436 -4.01749,1.82452 -8.26785,6.17051 -10.112,10.33953 -1.85053,4.18342 -1.95981,11.79698 -0.227,15.81525 2.25964,5.23994 7.41934,9.89423 12.99742,11.72425 2.85773,0.93755 11.20389,0.27283 13.86724,-1.10444 z"
       id="path4708"
       inkscape:connector-curvature="0" />
  </g>
</svg>
