<?xml version="1.0" encoding="UTF-8" standalone="no"?>
<!-- Created with Inkscape (http://www.inkscape.org/) -->

<svg
   xmlns:dc="http://purl.org/dc/elements/1.1/"
   xmlns:cc="http://creativecommons.org/ns#"
   xmlns:rdf="http://www.w3.org/1999/02/22-rdf-syntax-ns#"
   xmlns:svg="http://www.w3.org/2000/svg"
   xmlns="http://www.w3.org/2000/svg"
   xmlns:sodipodi="http://sodipodi.sourceforge.net/DTD/sodipodi-0.dtd"
   xmlns:inkscape="http://www.inkscape.org/namespaces/inkscape"
   width="61.515137mm"
   height="59.55027mm"
   viewBox="0 0 217.96702 211.00489"
   id="svg2"
   version="1.1"
   inkscape:version="0.91 r13725"
   sodipodi:docname="tooling.svg">
  <defs
     id="defs4" />
  <sodipodi:namedview
     id="base"
     pagecolor="#ffffff"
     bordercolor="#666666"
     borderopacity="1.0"
     inkscape:pageopacity="0.0"
     inkscape:pageshadow="2"
     inkscape:zoom="1.4"
     inkscape:cx="-41.150334"
     inkscape:cy="214.09761"
     inkscape:document-units="px"
     inkscape:current-layer="layer1"
     showgrid="false"
     fit-margin-top="0"
     fit-margin-left="0"
     fit-margin-right="0"
     fit-margin-bottom="0"
     inkscape:window-width="1920"
     inkscape:window-height="1018"
     inkscape:window-x="-8"
     inkscape:window-y="-8"
     inkscape:window-maximized="1" />
  <metadata
     id="metadata7">
    <rdf:RDF>
      <cc:Work
         rdf:about="">
        <dc:format>image/svg+xml</dc:format>
        <dc:type
           rdf:resource="http://purl.org/dc/dcmitype/StillImage" />
        <dc:title></dc:title>
      </cc:Work>
    </rdf:RDF>
  </metadata>
  <g
     inkscape:label="Calque 1"
     inkscape:groupmode="layer"
     id="layer1"
     transform="translate(-171.74279,-431.35732)">
    <path
       style="fill:#f9f9f9"
       d="m 180.88481,640.04373 -2.17809,-2.31847 9.5196,-15.07212 c 7.46429,-11.81801 10.67506,-15.96355 14.87135,-19.20096 2.94345,-2.27086 5.97383,-3.89089 6.73417,-3.60006 0.86487,0.33081 12.33864,-10.43327 30.64648,-28.75086 l 29.26404,-29.27964 -5.51404,-5.44555 c -3.03272,-2.99504 -5.51404,-5.92391 -5.51404,-6.50859 0,-0.58467 2.82461,-3.86255 6.27691,-7.28416 5.56126,-5.51183 6.72988,-6.22361 10.25,-6.24307 10.88356,-0.0602 21.39137,-10.58422 21.45113,-21.48429 0.0214,-3.91053 0.73299,-4.71699 29.78055,-33.75244 l 29.75859,-29.7462 16.73918,16.76093 16.73917,16.76093 -29.75391,29.74151 c -27.56749,27.55601 -30.01066,29.74313 -33.24777,29.76348 -4.08307,0.0257 -11.48694,3.16364 -14.84117,6.29011 -3.3655,3.13698 -6.09611,8.93998 -6.79228,14.43473 -0.52801,4.16748 -1.41579,5.58497 -7.20445,11.50316 l -6.60223,6.74995 -6.04344,-5.98972 -6.04345,-5.98973 -29.27832,29.29095 c -21.62878,21.63811 -29.11302,29.72173 -28.64562,30.93976 0.41505,1.08161 -0.85951,3.49104 -3.70509,7.00412 -3.25956,4.02415 -7.97062,7.64082 -18.95279,14.55001 -8.03825,5.05708 -14.82231,9.1947 -15.07569,9.1947 -0.25338,0 -1.44084,-1.04331 -2.63879,-2.31848 z m 167.82947,1.05604 c -2.62668,-0.7942 -12.66846,-10.17906 -40.24433,-37.61156 l -36.74433,-36.55329 3.70615,-3.79544 3.70615,-3.79544 5.56718,5.50908 c 3.06195,3.03 6.01301,5.50909 6.55793,5.50909 0.54491,0 5.15232,-4.17895 10.23869,-9.28655 8.55876,-8.5945 9.20185,-9.51699 8.62951,-12.37872 -0.34014,-1.70069 -0.20342,-3.34866 0.30382,-3.66216 0.50724,-0.31349 15.58813,14.14444 33.51308,32.12872 34.56626,34.68068 34.74591,34.90938 34.76057,44.25237 0.007,4.73511 -4.43932,13.43717 -8.3478,16.3362 -6.03908,4.47935 -13.88888,5.69334 -21.64662,3.3477 z m 11.93325,-11.13038 c 2.48988,-0.89977 3.77416,-2.18405 4.67393,-4.67393 2.17076,-6.00706 1.70614,-8.2214 -2.60916,-12.43518 l -4.00198,-3.90783 -5.74802,1.45488 -5.74802,1.45488 -1.45488,5.74802 -1.45488,5.74802 3.90783,4.00198 c 4.21378,4.3153 6.42812,4.77992 12.43518,2.60916 z m -117.43881,-91.59771 -10.99444,-10.99053 -3.97597,1.09993 c -2.18678,0.60496 -8.05247,0.92163 -13.03486,0.70372 -7.91053,-0.34598 -10.04078,-0.8625 -16.80437,-4.07451 -12.78465,-6.07141 -21.70663,-16.72844 -25.32345,-30.24808 -1.42845,-5.33956 -1.77382,-15.18767 -0.71778,-20.46783 l 0.64356,-3.21784 13.19347,13.16631 13.19347,13.16631 12.69411,-3.43795 c 6.98176,-1.89088 12.86821,-3.61206 13.08099,-3.82484 0.21278,-0.21278 1.88616,-6.11736 3.71861,-13.1213 l 3.33174,-12.73442 -12.85905,-12.88766 c -9.20335,-9.22383 -12.4872,-13.11747 -11.55106,-13.69604 0.71939,-0.44461 5.38107,-0.78686 10.35929,-0.76056 10.353,0.0547 17.47789,2.24764 26.41408,8.12994 13.84624,9.11435 22.2314,28.47311 19.3582,44.69211 l -1.06179,5.99377 6.9204,7.02352 c 3.80623,3.86293 6.92041,7.39966 6.92041,7.8594 0,0.45974 -1.56243,0.65349 -3.47206,0.43055 -3.25015,-0.37944 -4.09538,0.22032 -13.22495,9.38428 l -9.75288,9.78962 5.93226,5.99481 5.93226,5.99482 -3.40348,3.5115 c -1.87192,1.93132 -3.65521,3.5115 -3.96287,3.5115 -0.30767,0 -5.50689,-4.94574 -11.55384,-10.99053 z"
       id="path4147"
       inkscape:connector-curvature="0" />
  </g>
</svg>
