<?xml version="1.0" encoding="UTF-8" standalone="no"?>
<!-- Created with Inkscape (http://www.inkscape.org/) -->

<svg
   xmlns:dc="http://purl.org/dc/elements/1.1/"
   xmlns:cc="http://creativecommons.org/ns#"
   xmlns:rdf="http://www.w3.org/1999/02/22-rdf-syntax-ns#"
   xmlns:svg="http://www.w3.org/2000/svg"
   xmlns="http://www.w3.org/2000/svg"
   xmlns:sodipodi="http://sodipodi.sourceforge.net/DTD/sodipodi-0.dtd"
   xmlns:inkscape="http://www.inkscape.org/namespaces/inkscape"
   width="144.49777mm"
   height="55.545784mm"
   viewBox="0 0 511.99998 196.81577"
   id="svg2"
   version="1.1"
   inkscape:version="0.91 r13725"
   sodipodi:docname="tyk-logo.svg">
  <defs
     id="defs4" />
  <sodipodi:namedview
     id="base"
     pagecolor="#ffffff"
     bordercolor="#666666"
     borderopacity="1.0"
     inkscape:pageopacity="0.0"
     inkscape:pageshadow="2"
     inkscape:zoom="0.35"
     inkscape:cx="-346.64267"
     inkscape:cy="-120.03768"
     inkscape:document-units="px"
     inkscape:current-layer="layer1"
     showgrid="false"
     fit-margin-top="0"
     fit-margin-left="0"
     fit-margin-right="0"
     fit-margin-bottom="0"
     inkscape:window-width="1920"
     inkscape:window-height="1018"
     inkscape:window-x="-8"
     inkscape:window-y="-8"
     inkscape:window-maximized="1" />
  <metadata
     id="metadata7">
    <rdf:RDF>
      <cc:Work
         rdf:about="">
        <dc:format>image/svg+xml</dc:format>
        <dc:type
           rdf:resource="http://purl.org/dc/dcmitype/StillImage" />
        <dc:title></dc:title>
      </cc:Work>
    </rdf:RDF>
  </metadata>
  <g
     inkscape:label="Calque 1"
     inkscape:groupmode="layer"
     id="layer1"
     transform="translate(-63.071245,-215.50876)">
    <path
       style="fill:#f9f9f9"
       d="m 381.7912,412.18602 c -8.6643,-0.71766 -17.9896,-2.89907 -26.0993,-6.10532 -3.3416,-1.32109 -10.029,-4.58482 -10.7718,-5.25701 -0.4932,-0.44634 -0.5333,-0.99556 -0.5333,-7.30333 0,-4.48104 0.117,-7.21134 0.3412,-7.95954 0.4871,-1.62573 2.7385,-3.97578 4.5597,-4.75941 1.3519,-0.58172 1.8064,-0.6299 4.6302,-0.49094 2.7968,0.13763 3.6473,0.32187 7.9645,1.72528 7.6637,2.4913 11.3622,3.35118 18.6288,4.33108 5.0512,0.68115 14.3344,0.69795 17.863,0.0323 9.9792,-1.88245 15.5268,-6.78398 18.827,-16.63445 0.9105,-2.71771 1.7071,-7.0554 1.7089,-9.3055 l 0,-1.42781 -2.9156,2.88192 c -5.96,5.89125 -12.829,9.18816 -21.9322,10.52677 -2.4914,0.36635 -4.5095,0.43505 -9.4278,0.32095 -6.7195,-0.15589 -10.747,-0.69079 -15.6444,-2.07781 -2.9902,-0.84687 -8.139,-3.23975 -10.6714,-4.95945 -6.186,-4.20079 -10.8771,-11.33715 -12.8142,-19.49369 -1.3802,-5.81137 -1.3918,-6.18251 -1.3977,-44.73179 l 0,-36.21092 8.6203,0.0865 8.6203,0.0865 2.1175,1.04986 c 3.561,1.76554 5.9988,4.38118 7.1812,7.70498 0.2331,0.65529 0.3706,9.42326 0.4829,30.78294 0.1444,27.47064 0.1974,30.00357 0.6608,31.57333 1.8252,6.18236 5.7508,9.6403 12.2784,10.81562 3.6058,0.64925 11.0071,0.45093 14.6701,-0.39309 4.787,-1.103 9.3787,-3.37216 12.4641,-6.15956 2.4927,-2.25204 5.0958,-6.03056 6.7579,-9.80964 l 0.8132,-1.84889 0.1422,-27.45517 0.1422,-27.45517 0.9147,-1.85757 c 1.2241,-2.48616 4.1821,-5.34998 6.8128,-6.59597 l 1.9437,-0.92056 8.8888,-0.0894 8.8889,-0.0894 -0.01,47.16495 c -0.01,49.47434 -0.04,51.00425 -1.2744,57.97384 -1.1262,6.35829 -3.1512,12.56617 -5.6848,17.42752 -7.8575,15.07678 -21.7168,23.25839 -42.0227,24.80743 -3.4631,0.26418 -13.0066,0.32465 -15.7234,0.0996 z m 89.4578,-116.87481 0,-79.80245 8.32,0.0894 c 7.92097,0.0851 8.39833,0.12095 9.95356,0.74661 3.40724,1.3707 6.65665,4.53668 7.98683,7.78174 l 0.6196,1.51159 0.0758,41.05376 0.0758,41.05376 12.86642,-0.11361 c 14.11222,-0.12461 14.92918,-0.21602 16.48947,-1.84501 0.94054,-0.98193 0.51638,0.0591 7.15912,-17.57112 3.06515,-8.13512 5.79667,-15.23911 6.07002,-15.78667 0.64227,-1.28658 3.04591,-3.86825 4.40476,-4.73102 0.58377,-0.37065 2.05577,-1.02395 3.27111,-1.45178 l 2.20971,-0.77788 9.78039,-0.0954 c 9.36471,-0.0914 9.77192,-0.0734 9.58029,0.42256 -1.69668,4.39152 -14.77586,40.06712 -15.25857,41.62019 -0.36465,1.17334 -1.40925,3.60534 -2.32129,5.40445 l -1.65823,3.27111 0.64982,0.42418 c 1.41377,0.92285 3.70693,3.3153 4.61818,4.81813 0.64333,1.06097 3.9286,10.16336 9.94503,27.55442 4.94142,14.28354 8.98438,26.02754 8.98438,26.09778 0,0.0702 -4.08764,0.1277 -9.08362,0.1277 -10.02559,0 -11.81036,-0.20172 -15.01545,-1.6971 -2.03156,-0.94785 -4.35801,-3.00002 -5.3822,-4.74765 -0.38747,-0.66116 -3.3106,-9.01813 -6.49583,-18.57104 -3.18527,-9.55291 -6.07036,-17.82034 -6.41135,-18.37207 -0.34099,-0.55173 -1.15109,-1.28717 -1.80022,-1.63431 -1.17146,-0.62647 -1.29573,-0.63181 -16.74345,-0.71978 l -15.56324,-0.0886 -0.0812,18.00863 -0.0812,18.00862 -0.90596,1.91241 c -1.5798,3.3349 -4.6689,6.05907 -8.26851,7.29174 -1.65499,0.56674 -2.3436,0.60918 -9.88447,0.60918 l -8.1055,0 0,-79.80246 z M 130.7051,371.549 c -13.187,-1.79804 -25.6894,-6.75826 -35.6992,-14.16333 -10.5155,-7.77914 -18.247,-16.90186 -23.7871,-28.06755 -3.3149,-6.68101 -5.1463,-11.92717 -6.5643,-18.80403 -1.6172,-7.84354 -1.5832,-6.73263 -1.5832,-51.75275 l 0,-41.51432 40.8888,2.9e-4 c 44.2538,2.8e-4 44.1643,-0.002 51.8764,1.56163 12.2178,2.47767 23.698,7.87803 33.3859,15.70494 3.178,2.56754 9.0762,8.49416 11.6902,11.74641 8.33,10.36404 13.3644,21.57269 16.0976,35.84 0.6261,3.26812 0.6267,3.31065 0.7197,46.57777 l 0.093,43.30667 -42.1759,-0.0293 c -33.3177,-0.0232 -42.7569,-0.10853 -44.9421,-0.40648 z m 158.215,-65.11563 0,-65.55142 -16.2844,-0.0921 c -16.2273,-0.0917 -16.2907,-0.0944 -18.07,-0.75285 -3.4174,-1.26479 -6.4054,-4.01171 -7.949,-7.30768 l -0.7899,-1.68679 -0.088,-7.75485 -0.088,-7.75484 52.156,0.0748 52.156,0.0748 2.1185,1.05244 c 2.6549,1.31891 5.7423,4.23761 6.7036,6.33735 1.0542,2.3027 1.246,4.01748 1.246,11.13792 l 0,6.64562 -21.6152,0 -21.6152,0 -0.074,60.79999 -0.074,60.8 -0.8281,1.70666 c -1.0674,2.20019 -4.2907,5.42988 -6.4253,6.43811 -2.5929,1.22475 -4.0356,1.38411 -12.5295,1.38411 l -7.9505,0 0,-65.55141 z"
       id="path4147"
       inkscape:connector-curvature="0" />
  </g>
</svg>
