<?xml version="1.0" encoding="UTF-8" standalone="no"?>
<!-- Created with Inkscape (http://www.inkscape.org/) -->

<svg
   xmlns:dc="http://purl.org/dc/elements/1.1/"
   xmlns:cc="http://creativecommons.org/ns#"
   xmlns:rdf="http://www.w3.org/1999/02/22-rdf-syntax-ns#"
   xmlns:svg="http://www.w3.org/2000/svg"
   xmlns="http://www.w3.org/2000/svg"
   xmlns:sodipodi="http://sodipodi.sourceforge.net/DTD/sodipodi-0.dtd"
   xmlns:inkscape="http://www.inkscape.org/namespaces/inkscape"
   width="144.49777mm"
   height="139.75676mm"
   viewBox="0 0 511.99998 495.20112"
   id="svg2"
   version="1.1"
   inkscape:version="0.91 r13725"
   sodipodi:docname="zuul-logo.svg">
  <defs
     id="defs4" />
  <sodipodi:namedview
     id="base"
     pagecolor="#ffffff"
     bordercolor="#666666"
     borderopacity="1.0"
     inkscape:pageopacity="0"
     inkscape:pageshadow="2"
     inkscape:zoom="0.7"
     inkscape:cx="869.05699"
     inkscape:cy="77.985081"
     inkscape:document-units="px"
     inkscape:current-layer="layer1"
     showgrid="false"
     fit-margin-top="0"
     fit-margin-left="0"
     fit-margin-right="0"
     fit-margin-bottom="0"
     inkscape:window-width="1920"
     inkscape:window-height="1018"
     inkscape:window-x="-8"
     inkscape:window-y="-8"
     inkscape:window-maximized="1" />
  <metadata
     id="metadata7">
    <rdf:RDF>
      <cc:Work
         rdf:about="">
        <dc:format>image/svg+xml</dc:format>
        <dc:type
           rdf:resource="http://purl.org/dc/dcmitype/StillImage" />
        <dc:title></dc:title>
      </cc:Work>
    </rdf:RDF>
  </metadata>
  <g
     inkscape:label="Calque 1"
     inkscape:groupmode="layer"
     id="layer1"
     transform="translate(-149.52276,-38.94902)">
    <g
       id="g7514"
       transform="matrix(1.5849004,0,0,1.5849004,-87.455923,-312.42463)">
      <path
         style="fill:#f9f9f9"
         d="m 292.07145,533.4862 c -24.2288,-3.36724 -48.14188,-12.55527 -68.5,-26.3195 -12.33031,-8.33659 -32.31296,-28.42021 -40.40419,-40.60834 -11.58848,-17.45619 -18.99181,-34.51705 -23.73306,-54.69245 -2.60586,-11.08873 -2.78731,-13.29297 -2.78731,-33.86084 0,-20.59348 0.1791,-22.76229 2.80131,-33.92324 3.28866,-13.99755 6.92181,-24.23716 12.62281,-35.57588 2.26975,-4.51431 3.90537,-8.42928 3.63472,-8.69993 -0.79528,-0.79529 -7.53686,-0.73425 -16.27694,0.14735 -7.7827,0.78504 -8.19476,0.72401 -9.32107,-1.38053 -3.40415,-6.3607 8.32227,-12.02417 28.06741,-13.55562 l 8.60368,-0.66731 3.60557,-4.72794 c 6.14839,-8.06231 23.74217,-24.33763 33.44626,-30.93984 11.65071,-7.92659 31.01607,-17.29781 42.74081,-20.68297 17.76735,-5.12979 31.16062,-6.78507 50,-6.1795 18.17272,0.58414 28.99887,2.3775 43.78181,7.25246 26.29518,8.67135 52.77789,26.52313 70.02869,47.20575 l 6.72232,8.05964 7.73359,0.63333 c 10.4993,0.85983 20.60101,3.30725 24.50239,5.93639 2.59951,1.75181 3.2312,2.85396 3.2312,5.63767 l 0,3.46017 -6,-0.10349 c -3.3,-0.0569 -8.5486,-0.28192 -11.66356,-0.5 -3.11496,-0.21808 -5.99763,-0.0639 -6.40593,0.34275 -0.4083,0.40659 1.30685,5.13159 3.81144,10.5 9.082,19.46661 13.07295,34.53335 14.80837,55.90493 3.42878,42.22512 -10.65009,83.85873 -39.34703,116.35581 -21.86849,24.76439 -52.62473,42.41337 -85.60083,49.12067 -11.0527,2.2481 -39.6676,3.31067 -50.10246,1.86046 z m 34.02623,-35.0339 c 30.7132,-3.81576 57.68697,-18.40499 77.888,-42.12706 26.76896,-31.43481 35.36901,-74.98964 22.86908,-115.82017 -2.50414,-8.1797 -11.57876,-26.98428 -13.34992,-27.66393 -0.73152,-0.28071 -5.57682,2.11633 -10.76733,5.32677 -5.19051,3.21044 -10.83868,6.60368 -12.55148,7.54054 -2.85217,1.56006 -3.01656,1.91764 -1.95387,4.25 0.8977,1.97023 1.89766,2.54662 4.41802,2.54662 7.26084,0 8.69337,3.43265 2.92127,7 -3.82668,2.36502 -4.01077,3.23008 -2.17099,10.20155 1.54084,5.83867 1.74931,6.04096 6.93956,6.73369 3.44934,0.46038 4.29172,0.98996 4.5576,2.86528 0.26683,1.88194 -0.4155,2.59187 -3.75,3.90169 -4.53587,1.78175 -4.49262,1.63376 -2.71763,9.29779 1.12279,4.84802 1.71048,5.70838 4.95763,7.25787 4.46091,2.12868 5.02742,5.36681 1.1109,6.34979 -1.43856,0.36106 -2.98083,1.71864 -3.49812,3.07923 -1.45267,3.8208 -2.63366,1.92554 -3.37922,-5.42299 -0.79147,-7.80097 -5.08844,-27.79455 -10.15784,-47.2639 -6.91275,-26.54881 -10.8162,-31.3442 -28.93451,-35.54612 -5.66501,-1.3138 -6.80205,-1.32588 -8.56514,-0.091 -1.72344,1.20715 -2.89041,1.22464 -7.66432,0.11491 -3.09723,-0.71997 -6.10306,-1.93741 -6.67963,-2.70541 -0.57656,-0.768 -1.86431,-1.7028 -2.86167,-2.07733 -2.77557,-1.04229 -0.99129,-2.69509 2.90948,-2.69509 2.55772,0 5.36207,-1.32308 10.59782,-5 10.84791,-7.61819 15.81974,-6.26905 9.98014,2.70817 -1.67659,2.57742 -2.83585,5.03005 -2.57613,5.45029 0.99798,1.61476 8.11007,2.09703 13.87733,0.94101 16.10168,-3.22749 27.60261,-6.36978 27.26264,-7.44872 -0.19943,-0.63291 -4.02223,-4.10152 -8.49511,-7.70802 -38.01856,-30.65451 -93.66669,-34.30604 -136.35199,-8.94716 -7.22735,4.29369 -21.8908,15.63237 -21.8908,16.92731 0,0.99485 4.7692,2.33519 19.9463,5.60573 11.44902,2.46717 19.02782,2.8306 20.85819,1.00023 0.35162,-0.35162 -0.62469,-2.88791 -2.16957,-5.6362 -5.20721,-9.26338 -1.28171,-10.41442 9.86508,-2.89264 5.43331,3.66636 8.35527,5 10.95484,5 2.48459,0 3.54516,0.44874 3.54516,1.5 0,0.825 -0.65264,1.5 -1.45031,1.5 -0.79767,0 -1.85192,0.71763 -2.34277,1.59473 -0.49085,0.8771 -3.40654,2.17915 -6.47931,2.89344 -4.73905,1.10163 -5.89794,1.08083 -7.63676,-0.13709 -1.8038,-1.26343 -3.10232,-1.18585 -10.8164,0.64624 -17.09256,4.05947 -20.13735,8.53589 -28.56955,42.00268 -1.87078,7.425 -4.19413,17.325 -5.16298,22 -0.96886,4.675 -1.99806,9.175 -2.28712,10 -0.61069,1.74296 -0.81602,3.70954 -1.0702,10.25 -0.13499,3.47351 -0.5877,4.75 -1.6846,4.75 -0.825,0 -1.5,-0.69841 -1.5,-1.55202 0,-0.85361 -1.37441,-2.03114 -3.05425,-2.61674 -3.41801,-1.19152 -3.79926,-4.46792 -0.69575,-5.97911 0.9625,-0.46867 2.50369,-1.21735 3.42487,-1.66373 1.05411,-0.51079 2.15715,-3.17588 2.97607,-7.19059 0.71566,-3.50845 1.19947,-6.47094 1.07513,-6.58331 -0.12434,-0.11237 -1.9461,-0.91723 -4.04835,-1.78858 -3.05703,-1.26709 -3.75776,-2.0389 -3.5,-3.85509 0.26182,-1.84486 1.12325,-2.37773 4.59215,-2.8407 5.23672,-0.69891 5.60394,-1.10221 7.06258,-7.75642 1.55195,-7.07989 1.65253,-6.69001 -2.33245,-9.04121 -5.8992,-3.48061 -4.37609,-7.1325 2.9748,-7.1325 3.23751,0 4.5252,-1.299 4.5252,-4.56494 0,-0.77075 -2.23932,-2.53612 -4.97627,-3.92304 -2.73695,-1.38691 -8.10325,-4.54449 -11.92511,-7.01684 -3.82186,-2.47235 -7.35279,-4.49518 -7.84653,-4.49518 -1.53777,0 -9.97713,17.05856 -13.11031,26.5 -6.95571,20.96014 -8.08181,48.33722 -2.81762,68.5 15.60546,59.77169 71.56975,98.41798 131.70207,90.94723 z m -24.02623,-23.44723 c 0,-1.34061 1.37685,-1.53225 9.25,-1.28753 5.30832,0.16501 9.25,0.71366 9.25,1.28753 0,0.57387 -3.94168,1.12252 -9.25,1.28753 -7.87315,0.24472 -9.25,0.0531 -9.25,-1.28753 z m -10.39194,-1.02202 c -2.69056,-0.73875 -7.64056,-2.72211 -11,-4.40746 -12.27367,-6.15745 -45.65491,-31.33219 -51.21928,-38.62745 -4.37061,-5.73017 -8.48341,-20.45703 -5.93039,-21.23519 0.52712,-0.16066 1.56994,2.73376 2.31738,6.43204 1.96041,9.7 6.42106,15.79571 18.83843,25.74375 11.27028,9.02905 30.43816,22.16744 38.08637,26.10584 2.63969,1.35929 7.38693,3.02026 10.54943,3.69104 3.42563,0.72659 5.75,1.74508 5.75,2.51953 0,1.56105 -1.0079,1.53077 -7.39194,-0.2221 z m 31.92376,0.5735 c -0.72054,-1.16586 -0.32505,-1.33975 6.84074,-3.00778 6.90537,-1.60741 13.31854,-5.05195 27.62744,-14.8388 28.11456,-19.22949 36.44975,-27.59308 38.80716,-38.93937 0.92813,-4.46712 2.81281,-4.51229 2.41816,-0.058 -0.36023,4.0658 -4.16251,11.5411 -7.81476,15.36381 -8.42006,8.81307 -33.84517,27.9254 -47.41056,35.63903 -7.69805,4.37731 -19.3226,7.69465 -20.46818,5.84106 z m -17.49664,-23.98574 c -0.56935,-1.06384 -1.07576,-3.42634 -1.12537,-5.25 l -0.0902,-3.31574 -0.9384,3.25 c -0.7245,2.5092 -1.48828,3.25 -3.35079,3.25 -1.32682,0 -2.69497,-0.45722 -3.04034,-1.01604 -1.60527,-2.59738 -16.84634,-11.67688 -30.77934,-18.33607 -16.10116,-7.69543 -22.98262,-12.67829 -25.36362,-18.36577 -2.09083,-4.99436 -1.68501,-16.21086 0.86788,-23.98751 2.83021,-8.6214 9.12643,-15.52857 15.78499,-17.31668 8.81985,-2.36851 25.34687,0.95939 31.59652,6.3623 2.01254,1.73987 2.81886,3.97466 4.14734,11.49479 1.76589,9.99621 2.51411,9.95216 3.7854,-0.22288 0.74893,-5.99427 2.60797,-8.91961 5.34212,-8.40625 0.89574,0.16819 2.07283,1.31566 2.61575,2.54995 0.83439,1.89691 1.76478,2.24416 6.01287,2.24416 4.24809,0 5.17848,-0.34725 6.01287,-2.24416 1.07095,-2.43472 3.24363,-3.23345 5.25768,-1.93287 0.69881,0.45126 1.87353,4.28792 2.61049,8.52591 0.73697,4.23799 1.55487,7.92037 1.81757,8.18306 0.26269,0.26269 1.08284,-3.41289 1.82255,-8.16797 0.97003,-6.2356 1.99533,-9.41854 3.67815,-11.41847 4.59774,-5.4641 22.97345,-9.48649 32.06382,-7.01868 10.66258,2.89463 18.20134,15.86719 18.22605,31.36302 0.0211,13.20521 -4.07594,17.41133 -28.44511,29.20284 -9.47058,4.58252 -20.23739,10.62606 -23.98725,13.46431 -7.77266,5.88311 -10.724,6.27576 -11.59792,1.54301 -0.5182,-2.80637 -0.59441,-2.71639 -1.1806,1.39412 -0.72379,5.0753 -1.86524,6.06943 -6.99312,6.09057 -2.65961,0.011 -4.00886,-0.53412 -4.75,-1.91895 z m 92.36482,-39.46574 c -0.36606,-0.95394 -0.17057,-2.22943 0.43443,-2.83443 0.8,-0.8 1.28152,-0.62698 1.76557,0.63443 0.36606,0.95394 0.17057,2.22943 -0.43443,2.83443 -0.8,0.8 -1.28152,0.62698 -1.76557,-0.63443 z m -176.94179,-7.84831 c -0.84401,-2.19944 -0.16723,-6.76811 1.04179,-7.03278 1.37047,-0.30001 1.89685,6.28424 0.60562,7.57547 -0.72007,0.72007 -1.22691,0.55311 -1.64741,-0.54269 z m 178.73674,-3.25169 c 0.0204,-1.65 0.2445,-2.20394 0.49804,-1.23097 0.25354,0.97297 0.23687,2.32297 -0.0371,3 -0.27393,0.67703 -0.48137,-0.11903 -0.46099,-1.76903 z M 299.731,348.37435 c -2.40414,-1.39758 -4.47111,-6.40422 -3.89283,-9.42926 0.25139,-1.3151 1.59309,-3.5271 2.98154,-4.91556 3.0949,-3.09489 5.70635,-3.37091 4.96199,-0.52446 -0.41497,1.58686 -0.0307,2 1.86032,2 2.9249,0 5.76575,3.93198 4.77506,6.6091 -0.94952,2.56585 -2.30869,3.35749 -5.79563,3.37559 -2.29444,0.0119 -2.68333,0.28198 -1.75,1.21531 2.60926,2.60926 0.45045,3.75676 -3.14045,1.66928 z m 19.81925,-0.80248 c 0.51032,-1.60787 0.0619,-1.98651 -2.66456,-2.25 -6.48352,-0.62657 -5.78408,-9.8168 0.74713,-9.8168 1.75906,0 2.13702,-0.43736 1.72838,-2 -0.75465,-2.88578 1.88249,-2.55503 5.07389,0.63636 3.57091,3.57092 3.65353,9.43737 0.18181,12.90909 -3.02123,3.02124 -5.95593,3.32322 -5.06665,0.52135 z m -47.4788,-3.14262 c -8.69426,-2.38089 -12.526,-4.39782 -15.21871,-8.01076 -2.53603,-3.40272 -3.47913,-10.36765 -1.69493,-12.51747 3.28877,-3.96273 19.39939,1.76551 31.16364,11.08044 3.1625,2.50407 5.75,5.2109 5.75,6.01518 0,2.10596 -4.3121,4.6241 -8.7119,5.08749 -2.08346,0.21943 -7.1631,-0.52527 -11.2881,-1.65488 z m 63,0.32427 c -5.03577,-2.51565 -4.5311,-4.83029 2.24307,-10.28768 10.22778,-8.23969 25.27322,-14.00557 29.55267,-11.32552 2.36282,1.47973 2.60272,7.17547 0.47785,11.34482 -2.47015,4.84682 -6.7789,7.39948 -16.68274,9.88343 -10.30032,2.5834 -11.14813,2.60433 -15.59085,0.38495 z M 293.7653,294.86559 c -1.26869,-1.26869 0.4918,-2.36052 3.80615,-2.36052 1.86008,0 3.62846,0.39884 3.92974,0.88631 0.91846,1.4861 -6.34064,2.86945 -7.73589,1.47421 z m 28.55615,4.4e-4 c -2.77243,-1.17025 -0.99185,-2.45728 3,-2.16846 2.3375,0.16913 4.25,0.7575 4.25,1.3075 0,1.08984 -5.23496,1.71151 -7.25,0.86096 z m -16.72515,-1.32075 c -0.35839,-0.57989 -0.003,-1.30307 0.78883,-1.60709 2.32391,-0.89176 11.20846,-0.026 10.94782,1.06688 -0.3272,1.37193 -10.92125,1.85955 -11.73665,0.54021 z"
         id="path4207"
         inkscape:connector-curvature="0" />
      <path
         style="fill:#f9f9f9"
         d="M 297.07144,532.83954 C 287.6525,531.90989 273.55042,528.9331 264.31577,525.92518 210.29862,508.33069 171.0598,463.67699 159.377,406.50507 c -2.49334,-12.20166 -2.44417,-44.96174 0.0863,-57.5 2.49851,-12.37982 7.80751,-28.21969 13.13995,-39.20417 2.4575,-5.06229 4.46818,-9.63903 4.46818,-10.17054 0,-1.83708 -6.16361,-2.30864 -14.57295,-1.11494 -9.36147,1.32887 -11.42705,0.98426 -11.42705,-1.90639 0,-4.86831 9.79907,-8.72001 25.9168,-10.18708 9.05782,-0.82445 10.62062,-1.23965 11.97911,-3.18251 4.07576,-5.82903 15.7225,-18.07661 22.77506,-23.94999 21.02065,-17.50604 45.15783,-29.07373 71.86531,-34.44129 13.61564,-2.73642 44.38092,-2.49446 58.06778,0.45668 36.88754,7.95363 67.54392,26.71646 91.42212,55.95369 l 3.47382,4.25347 10,0.96214 c 16.39306,1.57726 25.9993,5.52398 25.30443,10.39632 -0.33114,2.32189 0.54551,2.24577 -16.96201,1.47273 -4.21168,-0.18597 -8.0089,0.009 -8.43827,0.43348 -0.42937,0.42438 1.27891,4.92438 3.79618,10 12.48292,25.16952 17.45326,50.93653 15.63063,81.03164 -2.86354,47.28283 -30.116,93.05523 -71.04764,119.32946 -28.39174,18.22481 -64.52855,26.98404 -97.78332,23.70177 z m 33.00416,-33.77901 c 18.14277,-2.73502 33.62218,-8.7835 49.49584,-19.34019 26.8609,-17.86368 45.83593,-46.59477 52.13504,-78.94039 2.09054,-10.73479 2.32579,-32.67422 0.46404,-43.27488 -1.89684,-10.80037 -6.68366,-25.19652 -11.63777,-35 -7.0051,-13.86213 -5.7583,-13.33385 -16.09626,-6.82005 -14.99661,9.44916 -19.36343,11.14283 -19.36584,7.51103 -0.002,-2.49211 -5.87214,-13.30736 -8.62361,-15.88737 -1.58158,-1.48301 -5.0131,-3.64156 -7.6256,-4.79679 -2.6125,-1.15522 -4.75,-2.27245 -4.75,-2.48272 0,-0.21027 2.5875,-0.8996 5.75,-1.53186 11.29338,-2.2578 26.76327,-6.12314 27.52676,-6.87789 0.82443,-0.81499 -7.45211,-8.30406 -15.77676,-14.27569 -29.73161,-21.32777 -70.69182,-27.54271 -106.7857,-16.20272 -9.50047,2.98486 -23.37632,9.70185 -31.65334,15.32266 -6.25016,4.24441 -17.06096,13.76474 -17.06096,15.02443 0,0.73196 7.60144,2.74794 24.75,6.56396 3.9875,0.88732 7.25,1.95602 7.25,2.37488 0,0.41885 -1.76515,1.29041 -3.92256,1.93678 -5.32928,1.59669 -12.1665,9.35758 -15.05986,17.09434 -1.24379,3.32586 -2.4444,6.04701 -2.66802,6.04701 -1.11044,0 -12.66361,-6.3577 -18.84956,-10.37289 -8.40439,-5.45515 -8.14391,-5.59331 -14.84289,7.87289 -14.07025,28.28383 -16.65126,62.22514 -7.04701,92.67094 9.46281,29.99743 31.92679,56.57428 60.13245,71.14193 10.63938,5.49503 23.73852,9.95101 34.25745,11.65349 4.125,0.66762 8.175,1.34611 9,1.50775 4.43689,0.8693 22.74161,0.32693 31.00416,-0.91865 z m -23.51238,-49.80546 c -0.30048,-1.2375 -0.90954,-4.275 -1.35347,-6.75 l -0.80715,-4.5 -0.94564,4.49209 c -1.2138,5.76589 -2.96633,6.07799 -8.8615,1.5781 -6.63841,-5.0672 -14.48902,-9.50981 -26.52402,-15.00975 -14.02393,-6.40888 -18.21081,-8.9445 -22.3686,-13.54668 -6.92396,-7.66399 -7.31406,-18.09104 -1.21642,-32.51376 5.24461,-12.40507 18.25187,-16.62652 35.14912,-11.40749 9.99877,3.08831 11.64895,5.20808 13.82789,17.76288 0.98848,5.69547 2.12657,9.97047 2.52911,9.5 0.40253,-0.47046 1.30443,-4.45539 2.00422,-8.85539 0.69979,-4.4 1.73297,-8.5625 2.29595,-9.25 1.64003,-2.00274 3.75209,-1.45027 4.77873,1.25 0.85627,2.25216 1.50066,2.5 6.5,2.5 4.99934,0 5.64373,-0.24784 6.5,-2.5 1.02496,-2.69585 3.16154,-3.26038 4.73089,-1.25 0.53668,0.6875 1.55416,4.85 2.26106,9.25 0.70691,4.4 1.59766,8.35225 1.97945,8.78279 0.3818,0.43053 1.50906,-3.97136 2.50503,-9.78198 1.59918,-9.32981 2.1501,-10.85021 4.71299,-13.00675 6.95475,-5.85203 25.11585,-8.35534 33.38132,-4.60125 8.31472,3.77647 14.48617,15.69797 14.66875,28.3359 0.20153,13.9493 -4.74829,19.25112 -27.31376,29.25611 -11.29123,5.00626 -20.35305,10.17759 -26.59403,15.17647 -5.97865,4.78876 -7.91384,4.4818 -8.89735,-1.41129 l -0.79274,-4.75 -1.07081,5.5 c -1.41993,7.29325 -2.00395,8 -6.61076,8 -3.23865,0 -4.01712,-0.392 -4.46826,-2.25 z m -87.79723,-64.86113 c -2.36783,-1.37747 -0.47702,-3.88887 2.92789,-3.88887 1.8694,0 2.37756,0.53433 2.37756,2.5 0,2.71998 -2.08093,3.26472 -5.30545,1.38887 z m 180.30545,-1.38887 c 0,-1.96567 0.50816,-2.5 2.37756,-2.5 1.30765,0 2.91171,0.64362 3.56456,1.43026 0.9479,1.14215 0.78437,1.64575 -0.81181,2.5 -3.35626,1.79621 -5.13031,1.30163 -5.13031,-1.43026 z M 222.23424,361.9753 c -4.38375,-1.9008 -3.57579,-3.89194 1.73723,-4.28126 4.0987,-0.30034 4.23351,-0.21706 3.92228,2.42288 -0.39791,3.37515 -1.40146,3.70467 -5.65951,1.85838 z m 172.8372,0.11156 c 0,-0.78002 -0.28352,-2.15707 -0.63005,-3.06011 -0.53941,-1.40567 0.0608,-1.59727 4.17183,-1.33178 5.94467,0.3839 6.87526,2.32008 2.07841,4.32433 -4.43693,1.85386 -5.62019,1.86809 -5.62019,0.0676 z M 272.66669,343.41859 c -9.58411,-2.35419 -13.86335,-4.85138 -15.98879,-9.33041 -6.52623,-13.75302 6.99649,-13.92074 26.02757,-0.32282 8.33098,5.95258 9.14398,8.09886 3.89809,10.29074 -4.22213,1.76411 -4.1453,1.76763 -13.93687,-0.63751 z m 29.97618,0.51505 c -3.02042,-3.02041 -1.28258,-7.42857 2.92857,-7.42857 4.34869,0 5.94309,4.38404 2.67126,7.34501 -2.28311,2.06619 -3.59759,2.08581 -5.59983,0.0836 z m 12,0 c -3.02042,-3.02041 -1.28258,-7.42857 2.92857,-7.42857 4.56418,0 6.03614,4.81064 2.27749,7.4433 -2.76806,1.93883 -3.25388,1.93745 -5.20606,-0.0147 z m 21.67857,0.11409 c -5.47569,-2.43645 -4.33864,-4.68681 5.79204,-11.46311 12.46455,-8.3374 22.65722,-11.12722 25.29201,-6.92263 1.44571,2.30707 -0.81583,9.45831 -3.89301,12.31014 -2.32215,2.15209 -13.20574,5.87027 -20.44104,6.98329 -2.04336,0.31433 -4.8526,-0.0634 -6.75,-0.90769 z m -108,-5.5317 c -3.70021,-2.25606 -4.10206,-3.60575 -1.33504,-4.48397 2.64766,-0.84033 7.08504,0.41204 7.08504,1.99963 0,1.84577 -1.09198,4.47409 -1.85699,4.46964 -0.35365,-0.002 -2.10551,-0.89544 -3.89301,-1.9853 z m 161.41667,1.32237 c -0.36667,-0.36666 -0.66667,-1.66788 -0.66667,-2.89159 0,-2.45875 3.71126,-3.98555 7.08504,-2.91475 2.76702,0.87822 2.36517,2.22791 -1.33504,4.48397 -3.56273,2.17224 -4.095,2.3107 -5.08333,1.32237 z M 272.72643,298.67633 c -0.91025,-1.00581 -1.65499,-2.16223 -1.65499,-2.56983 0,-0.40759 -1.37422,-2.73844 -3.05382,-5.17966 -2.93945,-4.27234 -3.15216,-6.41744 -0.63716,-6.42567 1.96311,-0.006 17.69098,11.20341 17.69098,12.60902 0,1.24226 -5.72989,3.37754 -9.09501,3.3893 -0.87726,0.003 -2.33976,-0.81735 -3.25,-1.82316 z m 68.34501,0.5223 c -1.925,-0.65646 -3.47594,-1.64356 -3.44653,-2.19356 0.066,-1.23519 16.3618,-12.5 18.08258,-12.5 2.67384,0 2.24358,2.11875 -1.65523,8.15097 -5.49609,8.50352 -6.19604,8.85631 -12.98082,6.54259 z"
         id="path4203"
         inkscape:connector-curvature="0" />
      <path
         style="fill:#f9f9f9"
         d="m 293.39451,528.72832 c -19.15846,-2.22302 -37.85386,-8.51979 -54.8543,-18.12503 -20.72541,-11.70985 -38.93173,-28.33686 -52.3869,-48.49446 -30.0995,-45.09296 -33.82696,-104.38471 -9.62766,-153.14476 l 4.62879,-9.3267 3.38095,0.63427 c 4.29432,0.80562 18.38152,6.16336 20.74015,7.88803 1.68287,1.23054 1.57699,1.68759 -1.78823,7.71955 -4.97817,8.92307 -9.46895,20.53093 -12.51926,32.36003 -2.34464,9.09246 -2.59231,11.86442 -2.59575,29.05153 -0.004,17.51404 0.21036,19.81397 2.73454,29.40764 6.71249,25.51228 17.85549,44.57598 36.21154,61.95151 32.85005,31.09531 80.44754,41.86639 123.46735,27.94005 30.50845,-9.87616 57.57839,-32.89019 72.20281,-61.38459 10.08963,-19.65877 13.79719,-35.2215 13.79719,-57.91461 0,-22.91312 -3.88446,-39.07528 -14.01763,-58.32344 -4.68961,-8.908 -4.94175,-9.73309 -3.33376,-10.90888 2.42684,-1.77455 16.08979,-6.949 20.54114,-7.77936 l 3.68975,-0.6883 4.43358,8.84999 c 28.91183,57.71156 18.80891,127.01253 -25.31283,173.63323 -33.51998,35.4185 -80.43579,52.33479 -129.39147,46.6543 z m 16.02726,-81.62924 c -0.29465,-0.99457 -0.84071,-5.0633 -1.21346,-9.04163 -0.37274,-3.97833 -1.23607,-7.99693 -1.91851,-8.93022 -1.15428,-1.57856 -1.31097,-1.56229 -2.24709,0.23333 -0.55345,1.06162 -1.31918,4.51063 -1.70162,7.66446 -0.38243,3.15383 -1.02487,5.9379 -1.42763,6.18682 -0.40276,0.24892 -3.63377,-1.58685 -7.18001,-4.07949 -3.54625,-2.49264 -13.87272,-8.13098 -22.94772,-12.52966 -19.04998,-9.23357 -22.23815,-11.39824 -25.12669,-17.06025 -4.82826,-9.46416 0.18732,-29.45456 8.82416,-35.17015 6.87478,-4.54952 17.9434,-4.37273 29.19189,0.46624 5.89608,2.53642 6.38636,3.56232 8.70465,18.21408 1.7665,11.16437 3.54867,15.48437 5.29323,12.83085 0.50889,-0.77403 1.73678,-6.28653 2.72864,-12.25 1.74688,-10.50293 2.54072,-12.48293 3.74575,-9.34268 0.90261,2.35217 15.18189,2.1361 16.52143,-0.25 1.26839,-2.25935 1.46651,-1.64768 3.644,11.25 2.54209,15.05721 4.68879,15.46738 7.08333,1.35342 3.36229,-19.81803 2.9082,-18.74367 9.12518,-21.5899 7.39145,-3.38392 18.37066,-4.91883 24.02156,-3.35826 8.63275,2.38406 14.95222,12.73321 15.98276,26.17433 0.39895,5.20349 0.0839,7.53032 -1.50634,11.12533 -2.55943,5.78602 -6.66778,8.62521 -25.47161,17.60286 -8.05576,3.84612 -18.05885,9.35167 -22.22908,12.23456 -4.17024,2.88288 -7.74858,5.06521 -7.95187,4.84963 -0.20329,-0.21558 -0.84846,-3.50075 -1.43372,-7.30038 -1.86413,-12.10251 -4.58849,-11.44399 -5.62614,1.35993 -0.33645,4.15166 -0.97481,8.22348 -1.41856,9.04848 -1.21042,2.25035 -4.83067,2.45452 -5.46653,0.3083 z M 271.95489,339.35772 c -9.39419,-2.57573 -11.9688,-4.55739 -12.832,-9.87672 -0.52067,-3.20849 -0.34143,-3.69022 1.37307,-3.69022 5.83856,0 18.20346,6.07642 25.05047,12.31043 1.69383,1.54219 1.94458,2.25899 1,2.85863 -1.98233,1.25842 -5.61216,0.85987 -14.59154,-1.60212 z m 33.00752,0.88024 c 0.45227,-2.17211 2.22702,-2.30502 2.63295,-0.19718 0.2108,1.0946 -0.27967,1.75 -1.30963,1.75 -0.96073,0 -1.51197,-0.64684 -1.32332,-1.55282 z m 12,0 c 0.45227,-2.17211 2.22702,-2.30502 2.63295,-0.19718 0.2108,1.0946 -0.27967,1.75 -1.30963,1.75 -0.96073,0 -1.51197,-0.64684 -1.32332,-1.55282 z m 20.95424,0.65489 c -1.03136,-0.65335 -0.0446,-1.92033 4,-5.13605 9.36743,-7.44769 23.86908,-12.65169 23.86908,-8.56557 0,2.88058 -2.75247,8.39671 -4.71355,9.44625 -2.36098,1.26356 -17.48707,5.15858 -19.95306,5.13799 -1.00837,-0.008 -2.44948,-0.4056 -3.20247,-0.88262 z M 210.78573,286.72782 c -4.125,-1.02028 -9.3,-1.88039 -11.5,-1.91136 -7.20948,-0.10148 -7.27652,-1.07211 -0.60909,-8.81886 14.10646,-16.39003 35.99143,-32.01923 56.10909,-40.07045 19.35774,-7.7471 37.15796,-11.14518 58.23923,-11.11794 31.16084,0.0403 58.05806,8.31171 84.82164,26.0844 10.22731,6.79157 34.44515,29.86548 33.70619,32.11408 -0.23191,0.7057 -2.18687,1.39665 -4.34436,1.53546 -2.15748,0.1388 -8.7709,1.20948 -14.69648,2.37928 l -10.77378,2.12692 -5.72622,-4.96283 c -18.20548,-15.77843 -36.55617,-25.03588 -59.22622,-29.87808 -11.76622,-2.5132 -37.15414,-2.52287 -49,-0.0186 -10.76213,2.27511 -25.3926,7.65604 -34.78083,12.79202 -8.25218,4.51449 -21.27269,13.99059 -25.65626,18.67219 -3.44586,3.68014 -5.48982,3.81265 -16.56291,1.07382 z"
         id="path4183"
         inkscape:connector-curvature="0"
         sodipodi:nodetypes="sssscsssscsssssssscsssssssssssssssssssssssssssssssssssssscssccssccssscccsssssssscssssscc" />
      <path
         style="fill:#f9f9f9"
         d="m 310.13606,447.24194 c -0.29465,-0.99457 -0.84071,-5.0633 -1.21346,-9.04163 -0.37274,-3.97833 -1.23607,-7.99693 -1.91851,-8.93022 -1.15428,-1.57856 -1.31097,-1.56229 -2.24709,0.23333 -0.55345,1.06162 -1.31918,4.51063 -1.70162,7.66446 -0.38243,3.15383 -1.02487,5.9379 -1.42763,6.18682 -0.40276,0.24892 -3.63377,-1.58685 -7.18001,-4.07949 -3.54625,-2.49264 -13.87272,-8.13098 -22.94772,-12.52966 -19.04998,-9.23357 -22.23815,-11.39824 -25.12669,-17.06025 -4.82826,-9.46416 0.18732,-29.45456 8.82416,-35.17015 6.87478,-4.54952 17.9434,-4.37273 29.19189,0.46624 5.89608,2.53642 6.38636,3.56232 8.70465,18.21408 1.7665,11.16437 3.54867,15.48437 5.29323,12.83085 0.50889,-0.77403 1.73678,-6.28653 2.72864,-12.25 1.74688,-10.50293 2.54072,-12.48293 3.74575,-9.34268 0.90261,2.35217 15.18189,2.1361 16.52143,-0.25 1.26839,-2.25935 1.46651,-1.64768 3.644,11.25 2.54209,15.05721 4.68879,15.46738 7.08333,1.35342 3.36229,-19.81803 2.9082,-18.74367 9.12518,-21.5899 7.39145,-3.38392 18.37066,-4.91883 24.02156,-3.35826 8.63275,2.38406 14.95222,12.73321 15.98276,26.17433 0.39895,5.20349 0.0839,7.53032 -1.50634,11.12533 -2.55943,5.78602 -6.66778,8.62521 -25.47161,17.60286 -8.05576,3.84612 -18.05885,9.35167 -22.22908,12.23456 -4.17024,2.88288 -7.74858,5.06521 -7.95187,4.84963 -0.20329,-0.21558 -0.84846,-3.50075 -1.43372,-7.30038 -1.86413,-12.10251 -4.58849,-11.44399 -5.62614,1.35993 -0.33645,4.15166 -0.97481,8.22348 -1.41856,9.04848 -1.21042,2.25035 -4.83067,2.45452 -5.46653,0.3083 z M 305.6767,340.38082 c 0.45227,-2.17211 2.22702,-2.30502 2.63295,-0.19718 0.2108,1.0946 -0.27967,1.75 -1.30963,1.75 -0.96073,0 -1.51197,-0.64684 -1.32332,-1.55282 z m 12,0 c 0.45227,-2.17211 2.22702,-2.30502 2.63295,-0.19718 0.2108,1.0946 -0.27967,1.75 -1.30963,1.75 -0.96073,0 -1.51197,-0.64684 -1.32332,-1.55282 z"
         id="path4181"
         inkscape:connector-curvature="0" />
    </g>
  </g>
</svg>
